<svg width="24" height="25" viewBox="0 0 24 25" fill="none" xmlns="http://www.w3.org/2000/svg">
<path d="M11.9944 21.3669C13.3113 21.3669 14.4325 20.8814 15.358 19.9103C16.2836 18.9393 16.7463 17.7601 16.7463 16.3728C16.7463 14.9856 16.2854 13.8044 15.3636 12.8294C14.4418 11.8544 13.3225 11.3669 12.0056 11.3669C10.6887 11.3669 9.5675 11.8525 8.64197 12.8236C7.71643 13.7946 7.25366 14.9738 7.25366 16.3611C7.25366 17.7483 7.71457 18.9294 8.63639 19.9044C9.55819 20.8794 10.6775 21.3669 11.9944 21.3669ZM8.81995 10.7919C9.26295 10.5086 9.73758 10.2878 10.2439 10.1294C10.7501 9.97111 11.2801 9.88361 11.8339 9.86694L9.22339 4.36694H5.75857L8.81995 10.7919ZM15.18 10.7919L18.2414 4.36694H14.7766L12.8069 8.54194L13.5188 10.0419C13.8194 10.1253 14.1082 10.2294 14.385 10.3544C14.6619 10.4794 14.9269 10.6253 15.18 10.7919ZM7.08754 20.2919C6.69201 19.7419 6.3835 19.1378 6.162 18.4794C5.94051 17.8211 5.82976 17.1169 5.82976 16.3669C5.82976 15.6169 5.94051 14.9128 6.162 14.2544C6.3835 13.5961 6.69201 12.9919 7.08754 12.4419C6.18574 12.6086 5.43423 13.0544 4.83303 13.7794C4.23183 14.5044 3.93123 15.3669 3.93123 16.3669C3.93123 17.3669 4.23183 18.2294 4.83303 18.9544C5.43423 19.6794 6.18574 20.1253 7.08754 20.2919ZM16.9125 20.2919C17.8143 20.1253 18.5658 19.6794 19.167 18.9544C19.7682 18.2294 20.0688 17.3669 20.0688 16.3669C20.0688 15.3669 19.7682 14.5044 19.167 13.7794C18.5658 13.0544 17.8143 12.6086 16.9125 12.4419C17.308 12.9919 17.6165 13.5961 17.838 14.2544C18.0595 14.9128 18.1702 15.6169 18.1702 16.3669C18.1702 17.1169 18.0595 17.8211 17.838 18.4794C17.6165 19.1378 17.308 19.7419 16.9125 20.2919ZM12 22.8669C11.3672 22.8669 10.762 22.7711 10.1845 22.5794C9.60705 22.3878 9.07309 22.1253 8.58264 21.7919C8.44025 21.8253 8.29786 21.8461 8.15547 21.8544C8.01308 21.8628 7.86278 21.8669 7.70456 21.8669C6.26484 21.8669 5.0387 21.3336 4.02615 20.2669C3.0136 19.2003 2.50732 17.9086 2.50732 16.3919C2.50732 14.9419 2.96614 13.7003 3.88376 12.6669C4.80139 11.6336 5.9326 11.0586 7.27739 10.9419L3.45659 2.86694H10.1015L12 6.86694L13.8985 2.86694H20.5434L16.7463 10.8919C18.0911 11.0253 19.2184 11.6086 20.1281 12.6419C21.0378 13.6753 21.4927 14.9169 21.4927 16.3669C21.4927 17.9003 20.9864 19.2003 19.9738 20.2669C18.9613 21.3336 17.7272 21.8669 16.2717 21.8669C16.1293 21.8669 15.983 21.8628 15.8327 21.8544C15.6824 21.8461 15.536 21.8253 15.3936 21.7919C14.9032 22.1253 14.3732 22.3878 13.8036 22.5794C13.234 22.7711 12.6328 22.8669 12 22.8669ZM10.2439 19.1169L10.9083 16.8419L9.1522 15.5169H11.3118L12 13.1169L12.6882 15.5169H14.8478L13.0917 16.8419L13.7561 19.1169L12 17.7169L10.2439 19.1169Z" fill="#7A8189"/>
</svg>
