<svg width="31" height="31" viewBox="0 0 31 31" fill="none" xmlns="http://www.w3.org/2000/svg">
<path d="M30.368 9.81079H1" stroke="#DB2328" stroke-width="1.224" stroke-miterlimit="10"/>
<path d="M5.40564 5.40578V6.87378H9.07631V5.40578" stroke="#DB2328" stroke-width="1.224" stroke-miterlimit="10"/>
<path d="M22.2919 5.40578V6.87378H25.9625V5.40578" stroke="#DB2328" stroke-width="1.224" stroke-miterlimit="10"/>
<path d="M5.40564 3.9373H2.4683C1.65764 3.9373 1.00031 4.59463 1.00031 5.4053V28.1653C1.00031 28.976 1.65764 29.6333 2.4683 29.6333H28.899C29.711 29.6333 30.3683 28.976 30.3683 28.1653V5.4053C30.3683 4.59463 29.711 3.9373 28.899 3.9373H25.963V1.73463C25.963 1.3293 25.6336 0.999969 25.2283 0.999969H23.0256C22.6203 0.999969 22.2923 1.3293 22.2923 1.73463V3.9373H9.0763V1.73463C9.0763 1.3293 8.7483 0.999969 8.34297 0.999969H6.1403C5.73497 0.999969 5.40564 1.3293 5.40564 1.73463V3.9373Z" stroke="#DB2328" stroke-width="1.224" stroke-miterlimit="10"/>
<path d="M11.2791 15.6843H14.2164" stroke="#DB2328" stroke-width="1.224" stroke-miterlimit="10"/>
<path d="M17.1527 15.6843H20.09" stroke="#DB2328" stroke-width="1.224" stroke-miterlimit="10"/>
<path d="M23.0261 15.6843H25.9635" stroke="#DB2328" stroke-width="1.224" stroke-miterlimit="10"/>
<path d="M5.40564 19.3552H8.34297" stroke="#DB2328" stroke-width="1.224" stroke-miterlimit="10"/>
<path d="M11.2791 19.3552H14.2164" stroke="#DB2328" stroke-width="1.224" stroke-miterlimit="10"/>
<path d="M17.1527 19.3552H20.09" stroke="#DB2328" stroke-width="1.224" stroke-miterlimit="10"/>
<path d="M23.0261 19.3552H25.9635" stroke="#DB2328" stroke-width="1.224" stroke-miterlimit="10"/>
<path d="M5.40564 23.0261H8.34297" stroke="#DB2328" stroke-width="1.224" stroke-miterlimit="10"/>
<path d="M11.2791 23.0261H14.2164" stroke="#DB2328" stroke-width="1.224" stroke-miterlimit="10"/>
<path d="M17.1527 23.0261H20.09" stroke="#DB2328" stroke-width="1.224" stroke-miterlimit="10"/>
</svg>
