<svg width="25" height="25" viewBox="0 0 25 25" fill="none" xmlns="http://www.w3.org/2000/svg">
<path d="M8.20123 23.2739C7.74445 23.2739 7.34477 23.0788 7.00218 22.6885C6.6596 22.2983 6.4883 21.843 6.4883 21.3226V18.0705H10.0284V13.9402C9.30512 14.0052 8.58188 13.8914 7.85864 13.5987C7.13541 13.306 6.4883 12.8453 5.91733 12.2165V10.3303H4.48989L0.75 6.06993C1.43517 5.33277 2.25357 4.73112 3.20519 4.26497C4.15682 3.79883 5.12748 3.56575 6.11717 3.56575C6.68814 3.56575 7.34001 3.66874 8.07276 3.87471C8.80551 4.08068 9.45738 4.41132 10.0284 4.86662V2.46001H23.018V19.8591C23.018 20.8131 22.7278 21.6207 22.1473 22.282C21.5668 22.9433 20.8579 23.2739 20.0204 23.2739H8.20123ZM11.7413 18.0705H18.7357V19.8591C18.7357 20.2928 18.8547 20.6451 19.0926 20.9161C19.3305 21.1871 19.6398 21.3226 20.0204 21.3226C20.4011 21.3226 20.7103 21.1871 20.9483 20.9161C21.1862 20.6451 21.3051 20.2928 21.3051 19.8591V4.41132H11.7413V6.26506L18.6215 14.1028V15.5012H17.3939L13.7968 11.4035L13.3115 12.0539C13.064 12.3791 12.8166 12.6285 12.5692 12.8019C12.3218 12.9754 12.0458 13.138 11.7413 13.2898V18.0705ZM5.26071 8.37897H7.63025V11.2734C7.95381 11.5119 8.2726 11.6908 8.58664 11.81C8.90067 11.9293 9.21947 11.9889 9.54302 11.9889C10.0188 11.9889 10.5042 11.8425 10.999 11.5498C11.4939 11.2571 11.8555 10.959 12.0839 10.6555L12.5692 10.0051L10.5993 7.76106C9.99029 7.06726 9.30512 6.51981 8.54381 6.11871C7.78251 5.71761 6.97363 5.51706 6.11717 5.51706C5.60329 5.51706 5.13699 5.58752 4.71828 5.72845C4.29956 5.86938 3.87133 6.05909 3.43358 6.29758L5.26071 8.37897ZM17.0228 20.0218H8.20123V21.3226H17.4225C17.3083 21.1925 17.2131 21.0137 17.137 20.786C17.0609 20.5584 17.0228 20.3036 17.0228 20.0218Z" fill="#7A8189"/>
</svg>
