<svg width="25" height="25" viewBox="0 0 25 25" fill="none" xmlns="http://www.w3.org/2000/svg">
<path d="M3.98483 22.154C3.59135 22.154 3.24705 22.0065 2.95194 21.7114C2.65683 21.4163 2.50928 21.072 2.50928 20.6785V5.92294C2.50928 5.52945 2.65683 5.18516 2.95194 4.89005C3.24705 4.59494 3.59135 4.44738 3.98483 4.44738H13.9448L12.4693 5.92294H3.98483V20.6785H18.7404V12.1203L20.2159 10.6447V20.6785C20.2159 21.072 20.0684 21.4163 19.7733 21.7114C19.4782 22.0065 19.1339 22.154 18.7404 22.154H3.98483ZM8.4115 16.2518V12.0711L17.8059 2.67671C17.9534 2.52916 18.1174 2.42259 18.2977 2.35701C18.4781 2.29143 18.6584 2.25864 18.8388 2.25864C19.0191 2.25864 19.202 2.29553 19.3876 2.36931C19.5731 2.44308 19.7427 2.55375 19.8962 2.70131L21.9374 4.76708C22.0786 4.91395 22.1876 5.07611 22.2646 5.25357C22.3416 5.43103 22.3801 5.61155 22.3801 5.79513C22.3801 5.9787 22.3432 6.16476 22.2694 6.35331C22.1956 6.54185 22.085 6.7099 21.9374 6.85745L12.5922 16.2518H8.4115ZM9.88705 14.7763H11.9774L18.1993 8.55434L17.1419 7.52145L16.0844 6.48857L9.88705 12.6613V14.7763Z" fill="#2D9D46"/>
</svg>
