<svg width="24" height="25" viewBox="0 0 24 25" fill="none" xmlns="http://www.w3.org/2000/svg">
<g clip-path="url(#clip0_1444_5289)">
<path d="M1 18.8301V16.0301C1 15.4634 1.14583 14.9426 1.4375 14.4676C1.72917 13.9926 2.11667 13.6301 2.6 13.3801C3.63333 12.8634 4.68333 12.4759 5.75 12.2176C6.81667 11.9592 7.9 11.8301 9 11.8301C9.75 11.8301 10.4917 11.8884 11.225 12.0051C11.9583 12.1217 12.6917 12.3051 13.425 12.5551C13.1417 12.7884 12.8833 13.0426 12.65 13.3176C12.4167 13.5926 12.2083 13.8884 12.025 14.2051C11.525 14.0717 11.025 13.9759 10.525 13.9176C10.025 13.8592 9.51667 13.8301 9 13.8301C8.06667 13.8301 7.14167 13.9426 6.225 14.1676C5.30833 14.3926 4.4 14.7301 3.5 15.1801C3.35 15.2634 3.22917 15.3801 3.1375 15.5301C3.04583 15.6801 3 15.8467 3 16.0301V16.8301H11.075C11.0417 17.1634 11.025 17.4967 11.025 17.8301C11.025 18.1634 11.0417 18.4967 11.075 18.8301H1ZM9 10.8301C7.9 10.8301 6.95833 10.4384 6.175 9.65508C5.39167 8.87174 5 7.93008 5 6.83008C5 5.73008 5.39167 4.78841 6.175 4.00508C6.95833 3.22174 7.9 2.83008 9 2.83008C10.1 2.83008 11.0417 3.22174 11.825 4.00508C12.6083 4.78841 13 5.73008 13 6.83008C13 7.93008 12.6083 8.87174 11.825 9.65508C11.0417 10.4384 10.1 10.8301 9 10.8301ZM9 8.83008C9.55 8.83008 10.0208 8.63424 10.4125 8.24258C10.8042 7.85091 11 7.38008 11 6.83008C11 6.28008 10.8042 5.80924 10.4125 5.41758C10.0208 5.02591 9.55 4.83008 9 4.83008C8.45 4.83008 7.97917 5.02591 7.5875 5.41758C7.19583 5.80924 7 6.28008 7 6.83008C7 7.38008 7.19583 7.85091 7.5875 8.24258C7.97917 8.63424 8.45 8.83008 9 8.83008ZM19 6.83008C19 7.93008 18.6083 8.87174 17.825 9.65508C17.0417 10.4384 16.1 10.8301 15 10.8301C14.8167 10.8301 14.5833 10.8092 14.3 10.7676C14.0167 10.7259 13.7833 10.6801 13.6 10.6301C14.05 10.0967 14.3958 9.50508 14.6375 8.85508C14.8792 8.20508 15 7.53008 15 6.83008C15 6.13008 14.8792 5.45508 14.6375 4.80508C14.3958 4.15508 14.05 3.56341 13.6 3.03008C13.8333 2.94674 14.0667 2.89258 14.3 2.86758C14.5333 2.84258 14.7667 2.83008 15 2.83008C16.1 2.83008 17.0417 3.22174 17.825 4.00508C18.6083 4.78841 19 5.73008 19 6.83008ZM18 22.8301C16.6167 22.8301 15.4375 22.3426 14.4625 21.3676C13.4875 20.3926 13 19.2134 13 17.8301C13 16.4301 13.4875 15.2467 14.4625 14.2801C15.4375 13.3134 16.6167 12.8301 18 12.8301C19.4 12.8301 20.5833 13.3134 21.55 14.2801C22.5167 15.2467 23 16.4301 23 17.8301C23 19.2134 22.5167 20.3926 21.55 21.3676C20.5833 22.3426 19.4 22.8301 18 22.8301ZM17.3 20.0801L20.825 16.5301L20.125 15.8301L17.3 18.6551L15.875 17.2301L15.175 17.9551L17.3 20.0801Z" fill="#7A8189"/>
</g>
<defs>
<clipPath id="clip0_1444_5289">
<rect width="24" height="24" fill="white" transform="translate(0 0.830078)"/>
</clipPath>
</defs>
</svg>
