<svg width="25" height="24" viewBox="0 0 25 24" fill="none" xmlns="http://www.w3.org/2000/svg">
<path d="M12.5211 15.525C13.6878 15.525 14.6794 15.15 15.4961 14.4C16.3128 13.65 16.7211 12.7417 16.7211 11.675C16.7211 10.725 16.4169 9.92083 15.8086 9.2625C15.2003 8.60417 14.4628 8.275 13.5961 8.275C12.8128 8.275 12.1503 8.525 11.6086 9.025C11.0669 9.525 10.7961 10.1417 10.7961 10.875C10.7961 11.1917 10.8586 11.5 10.9836 11.8C11.1086 12.1 11.2878 12.375 11.5211 12.625L12.9461 11.2C12.8961 11.1667 12.8586 11.125 12.8336 11.075C12.8086 11.025 12.7961 10.9667 12.7961 10.9C12.7961 10.7167 12.8711 10.5708 13.0211 10.4625C13.1711 10.3542 13.3628 10.3 13.5961 10.3C13.9294 10.3 14.2044 10.4375 14.4211 10.7125C14.6378 10.9875 14.7461 11.3167 14.7461 11.7C14.7461 12.2167 14.5336 12.6542 14.1086 13.0125C13.6836 13.3708 13.1628 13.55 12.5461 13.55C11.7628 13.55 11.1003 13.2333 10.5586 12.6C10.0169 11.9667 9.74609 11.1917 9.74609 10.275C9.74609 9.79167 9.83776 9.32917 10.0211 8.8875C10.2044 8.44583 10.4628 8.05833 10.7961 7.725L9.37109 6.3C8.83776 6.81667 8.42943 7.41667 8.14609 8.1C7.86276 8.78333 7.72109 9.5 7.72109 10.25C7.72109 11.7167 8.18776 12.9625 9.12109 13.9875C10.0544 15.0125 11.1878 15.525 12.5211 15.525ZM6.24609 22V17.7C5.29609 16.8333 4.55859 15.8208 4.03359 14.6625C3.50859 13.5042 3.24609 12.2833 3.24609 11C3.24609 8.5 4.12109 6.375 5.87109 4.625C7.62109 2.875 9.74609 2 12.2461 2C14.3294 2 16.1753 2.6125 17.7836 3.8375C19.3919 5.0625 20.4378 6.65833 20.9211 8.625L22.2211 13.75C22.3044 14.0667 22.2461 14.3542 22.0461 14.6125C21.8461 14.8708 21.5794 15 21.2461 15H19.2461V18C19.2461 18.55 19.0503 19.0208 18.6586 19.4125C18.2669 19.8042 17.7961 20 17.2461 20H15.2461V22H13.2461V18H17.2461V13H19.9461L18.9961 9.125C18.6128 7.60833 17.7961 6.375 16.5461 5.425C15.2961 4.475 13.8628 4 12.2461 4C10.3128 4 8.66276 4.675 7.29609 6.025C5.92943 7.375 5.24609 9.01667 5.24609 10.95C5.24609 11.95 5.45026 12.9 5.85859 13.8C6.26693 14.7 6.84609 15.5 7.59609 16.2L8.24609 16.8V22H6.24609Z" fill="#7A8189"/>
</svg>
