<svg width="225" height="59" viewBox="0 0 225 59" fill="none" xmlns="http://www.w3.org/2000/svg">
<path d="M63.9213 19.3556C65.3566 20.8727 66.0759 23.1243 66.0759 26.107V37.7867H60.6102V27.0154C60.6102 25.3984 60.283 24.1904 59.6285 23.3948C58.974 22.5992 58.028 22.1998 56.7904 22.1998C55.4134 22.1998 54.3151 22.6604 53.4986 23.5849C52.6822 24.5093 52.2707 25.8783 52.2707 27.6982V37.7867H46.8051V17.3843H52.0245V19.7743C52.747 18.9143 53.6477 18.2507 54.7233 17.7837C55.799 17.3166 56.9783 17.0815 58.2613 17.0815C60.5972 17.0783 62.4828 17.8384 63.9213 19.3556Z" fill="black"/>
<path d="M82.175 36.8007C81.6371 37.2323 80.9762 37.5544 80.1954 37.767C79.4113 37.9828 78.5884 38.0891 77.7266 38.0891C75.4846 38.0891 73.7513 37.4707 72.5233 36.2305C71.2954 34.9904 70.6831 33.1705 70.6831 30.7708V22.3895H67.7737V17.838H70.6831V12.8711H76.1488V17.838H80.8434V22.3895H76.1488V30.6967C76.1488 31.5567 76.3529 32.2203 76.7611 32.6873C77.1693 33.1544 77.746 33.3895 78.4944 33.3895C79.3595 33.3895 80.0949 33.1383 80.7008 32.6326L82.175 36.8007Z" fill="black"/>
<path d="M105.583 9.64653H111.049V37.7861H105.593C105.586 37.7861 105.583 37.7829 105.583 37.7764V9.64653Z" fill="black"/>
<path d="M136.605 37.4649C135.111 37.0461 133.919 36.5243 133.031 35.8898L134.852 31.6411C135.691 32.2241 136.709 32.6976 137.901 33.0648C139.093 33.432 140.26 33.6157 141.403 33.6157C143.716 33.6157 144.873 32.9972 144.873 31.7571C144.873 31.1773 144.559 30.7585 143.927 30.5041C143.295 30.2528 142.327 30.037 141.018 29.8598C139.475 29.6086 138.202 29.3155 137.198 28.9869C136.193 28.6584 135.322 28.0754 134.587 27.2411C133.851 26.4068 133.482 25.2182 133.482 23.6753C133.482 22.3869 133.825 21.2434 134.515 20.2448C135.205 19.2463 136.21 18.47 137.528 17.9128C138.847 17.3587 140.405 17.0785 142.207 17.0785C143.538 17.0785 144.863 17.2363 146.182 17.552C147.501 17.8677 148.593 18.3057 149.458 18.8598L147.637 23.0698C145.978 22.0583 144.167 21.5526 142.207 21.5526C141.037 21.5526 140.162 21.7298 139.579 22.0841C138.996 22.4384 138.704 22.8926 138.704 23.4498C138.704 24.0812 139.019 24.5257 139.65 24.7769C140.282 25.0314 141.287 25.2698 142.664 25.4985C144.206 25.7755 145.466 26.075 146.448 26.3907C147.429 26.7064 148.281 27.283 149.004 28.1172C149.726 28.9515 150.089 30.1143 150.089 31.6057C150.089 32.8716 149.739 33.9957 149.04 34.9814C148.34 35.9671 147.316 36.7337 145.975 37.2748C144.63 37.8192 143.036 38.0898 141.193 38.0898C139.628 38.0898 138.099 37.8804 136.605 37.4649Z" fill="black"/>
<path d="M183.421 17.3805L176.588 37.7829H171.333L167.095 25.1175L162.715 37.7829H157.46L150.663 17.3805H155.814L160.262 31.1861L164.886 17.3805H169.509L173.993 31.1861L178.584 17.3805H183.421Z" fill="black"/>
<path d="M202.549 17.8381H207.383V22.3896H202.689V37.7864H197.223V22.3896H194.314V17.8381H197.223V16.9266C197.223 14.6009 197.858 12.7552 199.131 11.3895C200.405 10.0237 202.196 9.34087 204.51 9.34087C205.326 9.34087 206.104 9.43428 206.839 9.62433C207.575 9.81438 208.187 10.0849 208.679 10.4393L207.244 14.7233C206.612 14.2434 205.877 14.0018 205.038 14.0018C203.379 14.0018 202.549 14.9875 202.549 16.9588V17.8381Z" fill="black"/>
<path d="M188.673 21.5227H190.374C190.947 21.5227 191.411 21.0621 191.411 20.492V16.092H187.41C186.6 16.092 185.945 16.7426 185.945 17.5479V21.5227C186.609 21.5227 187.491 21.5227 188.673 21.5227Z" fill="black"/>
<path d="M185.945 23.5387V37.7889H191.385C191.398 37.7889 191.411 37.776 191.411 37.7631V23.5387H185.945Z" fill="black"/>
<path d="M115.322 9.64653H120.788V37.7861H115.332C115.325 37.7861 115.322 37.7829 115.322 37.7764V9.64653Z" fill="black"/>
<path d="M127.588 21.5227H129.289C129.863 21.5227 130.326 21.0621 130.326 20.492V16.092H126.325C125.515 16.092 124.86 16.7426 124.86 17.5479V21.5227C125.525 21.5227 126.406 21.5227 127.588 21.5227Z" fill="black"/>
<path d="M124.86 23.5387V37.7889H130.3C130.313 37.7889 130.326 37.776 130.326 37.7631V23.5387H124.86Z" fill="black"/>
<path d="M39.846 21.5227H41.547C42.1204 21.5227 42.5837 21.0621 42.5837 20.492V16.092H38.5825C37.7725 16.092 37.118 16.7426 37.118 17.5479V21.5227C37.7822 21.5227 38.6667 21.5227 39.846 21.5227Z" fill="black"/>
<path d="M37.121 23.5387V37.7889H42.5607C42.5737 37.7889 42.5867 37.776 42.5867 37.7631V23.5387H37.121Z" fill="black"/>
<path d="M102.599 29.2538H88.3407C88.5966 30.5197 89.2057 31.5182 90.1615 32.2494C91.1205 32.9838 92.3095 33.3478 93.7351 33.3478C94.7168 33.3478 95.5851 33.19 96.3464 32.8743C97.1046 32.5587 97.8109 32.0594 98.4653 31.3765L101.375 34.7909C99.5993 36.9909 97.0074 38.0893 93.5958 38.0893C91.4704 38.0893 89.5913 37.6416 87.9551 36.7429C86.319 35.8442 85.0587 34.6008 84.171 33.0064C83.2832 31.4119 82.8394 29.6049 82.8394 27.582C82.8394 25.585 83.2767 23.7844 84.1547 22.177C85.0295 20.5729 86.2348 19.3199 87.764 18.4212C89.2932 17.5225 91.0039 17.0748 92.896 17.0748C94.7394 17.0748 96.4112 17.5064 97.9048 18.3632C99.3984 19.2233 100.574 20.457 101.427 22.0611C102.279 23.6684 102.706 25.5302 102.706 27.6561C102.703 27.7367 102.671 28.2681 102.599 29.2538ZM89.8116 22.6924C88.9725 23.4526 88.4573 24.4866 88.2694 25.8008H97.5549C97.367 24.5123 96.8551 23.4816 96.0127 22.7085C95.1703 21.9387 94.1433 21.5521 92.9284 21.5521C91.6907 21.5554 90.6507 21.9322 89.8116 22.6924Z" fill="black"/>
<path d="M224.062 36.8007C223.525 37.2323 222.864 37.5544 222.083 37.767C221.299 37.9828 220.476 38.0891 219.614 38.0891C217.372 38.0891 215.639 37.4707 214.411 36.2305C213.183 34.9904 212.571 33.1705 212.571 30.7708V22.3895H209.661V17.838H212.571V12.8711H218.036V17.838H222.731V22.3895H218.036V30.6967C218.036 31.5567 218.24 32.2203 218.649 32.6873C219.057 33.1544 219.633 33.3895 220.382 33.3895C221.247 33.3895 221.982 33.1383 222.588 32.6326L224.062 36.8007Z" fill="black"/>
<path d="M11.0792 34.8326V22.1543C11.0792 21.7162 11.0922 21.2943 11.1051 20.8884C11.1473 19.5162 11.1829 18.3276 10.6516 17.7865C10.3697 17.4998 9.8999 17.3581 9.21304 17.3581C9.21304 17.3581 4.58001 17.3581 4.55409 17.3581C3.58861 17.3581 2.53565 17.1358 1.622 17.6125C0.565799 18.1633 0.248291 19.4131 0.248291 20.5051V37.8797H12.1937C11.5004 37.0551 11.0792 35.9922 11.0792 34.8326Z" fill="#E12625"/>
<path d="M14.543 37.9021C13.7848 37.2836 13.3377 36.3527 13.3377 35.3767V21.7579C13.3377 21.3424 13.3507 20.9365 13.3604 20.5435C13.4123 18.8106 13.4609 17.2097 12.4435 16.1661C11.8377 15.5444 10.9791 15.2448 9.816 15.2448H4.12352C2.84377 15.2448 1.84913 14.9646 1.39554 14.4718C1.34694 14.4202 1.29187 14.3783 1.23031 14.3461C0.63741 13.6761 0.310181 12.8258 0.310181 11.9303V4.16744C0.310181 2.15103 1.95928 0.511486 3.98745 0.511486H10.9662C12.9943 0.511486 14.6434 2.15103 14.6434 4.16744V11.911C14.6434 14.3912 16.6716 16.4076 19.1663 16.4076H21.755C23.7831 16.4076 25.4322 18.0472 25.4322 20.0636V37.9021H14.543Z" fill="#E12625"/>
<path d="M16.6713 4.29655V11.0802C16.6713 12.9098 18.1681 14.3947 20.0051 14.3947C22.7817 14.3947 26.4201 15.0293 26.4201 11.4796C26.4201 11.4667 26.4201 4.67986 26.4201 4.67986C26.4201 2.38644 24.5345 0.502092 22.2277 0.502092C22.2277 0.502092 15.2587 0.473101 14.7954 0.495648C15.8419 1.36213 16.6713 2.89537 16.6713 4.29655Z" fill="#E12625"/>
<path d="M126.555 44.477H127.491V57.8156H126.555V44.477Z" fill="black"/>
<path d="M127.789 58.1085H126.26V44.1804H127.789V58.1085ZM126.853 57.519H127.197V44.7699H126.853V57.519Z" fill="black"/>
<path d="M129.698 53.3799V53.2414C129.698 50.5324 131.658 48.6513 134.088 48.6513C136.534 48.6513 138.462 50.4809 138.462 53.2221V53.3606C138.462 56.0856 136.518 57.9507 134.072 57.9507C131.606 57.9507 129.698 56.0373 129.698 53.3799ZM137.506 53.3799V53.2414C137.506 50.861 136.012 49.4276 134.088 49.4276C132.144 49.4276 130.65 50.8932 130.65 53.2414V53.3799C130.65 55.6927 132.108 57.1744 134.088 57.1744C136.032 57.1744 137.506 55.7088 137.506 53.3799Z" fill="black"/>
<path d="M134.068 58.2468C131.405 58.2468 129.4 56.1531 129.4 53.3798V53.2412C129.4 50.4582 131.415 48.358 134.088 48.358C136.793 48.358 138.756 50.4034 138.756 53.2251V53.3636C138.756 56.1467 136.741 58.2468 134.068 58.2468ZM134.088 48.9475C131.752 48.9475 129.993 50.7932 129.993 53.2412V53.3798C129.993 55.8181 131.745 57.6574 134.068 57.6574C136.44 57.6574 138.164 55.8503 138.164 53.3636V53.2251C138.164 50.7449 136.45 48.9475 134.088 48.9475ZM134.088 57.4706C131.891 57.4706 130.355 55.7891 130.355 53.3798V53.2412C130.355 50.8222 131.891 49.1343 134.088 49.1343C136.275 49.1343 137.804 50.8222 137.804 53.2412V53.3798C137.801 55.7859 136.275 57.4706 134.088 57.4706ZM134.088 49.7238C132.209 49.7238 130.948 51.1379 130.948 53.2412V53.3798C130.948 55.4735 132.212 56.8811 134.088 56.8811C135.954 56.8811 137.211 55.4735 137.211 53.3798V53.2412C137.211 51.1379 135.954 49.7238 134.088 49.7238Z" fill="black"/>
<path d="M139.378 48.7904H140.386L143.474 56.9011L146.545 48.7904H147.481L144.063 57.8159H142.865L139.378 48.7904Z" fill="black"/>
<path d="M144.271 58.1085H142.664L138.948 48.4935H140.59L143.474 56.0631L146.341 48.4935H147.912L144.271 58.1085ZM143.558 57.519H143.863L147.057 49.0829H146.753L143.558 57.519ZM143.072 57.519H143.396L140.182 49.0829H139.813L143.072 57.519Z" fill="black"/>
<path d="M148.421 53.3967V53.2582C148.421 50.5332 150.157 48.652 152.587 48.652C154.774 48.652 156.563 50.0661 156.563 53.0521V53.3806H149.377C149.412 55.7965 150.575 57.1751 152.727 57.1751C154.236 57.1751 155.26 56.5534 155.571 55.294H156.491C156.109 57.0205 154.671 57.9514 152.727 57.9514C150.102 57.9514 148.421 56.1057 148.421 53.3967ZM155.604 52.6365C155.516 50.4462 154.353 49.4283 152.584 49.4283C150.831 49.4283 149.581 50.6717 149.409 52.6365H155.604Z" fill="black"/>
<path d="M152.724 58.2471C149.973 58.2471 148.123 56.2983 148.123 53.3961V53.2576C148.123 50.3715 149.957 48.3551 152.584 48.3551C155.179 48.3551 156.854 50.1976 156.854 53.0482V53.6699H149.678C149.766 55.1967 150.391 56.8749 152.72 56.8749C154.146 56.8749 155.004 56.3177 155.28 55.2193L155.335 54.9938H156.858L156.777 55.3513C156.378 57.168 154.862 58.2471 152.724 58.2471ZM152.584 48.9478C150.307 48.9478 148.716 50.7194 148.716 53.2608V53.3993C148.716 55.9859 150.29 57.6609 152.724 57.6609C154.441 57.6609 155.652 56.9136 156.1 55.5929H155.792C155.39 56.8073 154.311 57.474 152.724 57.474C150.443 57.474 149.114 55.9859 149.079 53.3865L149.075 53.0869H156.265V53.0547C156.262 50.5197 154.852 48.9478 152.584 48.9478ZM155.912 52.9323H149.085L149.114 52.6134C149.302 50.5003 150.663 49.1346 152.584 49.1346C154.635 49.1346 155.811 50.3747 155.899 52.6263L155.912 52.9323ZM149.743 52.3428H155.286C155.124 50.626 154.194 49.7241 152.584 49.7241C151.065 49.7241 149.999 50.7162 149.743 52.3428Z" fill="black"/>
<path d="M163.344 55.6373V49.5623H162.006V48.786H163.344V46.7342H164.264V48.786H166.642V49.5623H164.264V55.5664C164.264 56.652 164.786 57.1545 165.618 57.1545C166.088 57.1545 166.451 57.0675 166.765 56.9644V57.7407C166.47 57.8438 166.124 57.9307 165.566 57.9307C164.125 57.934 163.344 57.0868 163.344 55.6373Z" fill="black"/>
<path d="M165.566 58.2272C163.989 58.2272 163.049 57.2577 163.049 55.6375V49.8588H161.711V48.4931H163.049V46.4412H164.562V48.4931H166.94V49.8588H164.562V55.5698C164.562 56.4395 164.909 56.8615 165.618 56.8615C166.082 56.8615 166.425 56.7681 166.671 56.6875L167.06 56.5587V57.9502L166.862 58.0211C166.571 58.1242 166.188 58.2272 165.566 58.2272ZM162.304 49.2693H163.642V55.6375C163.642 56.9452 164.306 57.6378 165.566 57.6378C165.971 57.6378 166.247 57.5895 166.467 57.5283V57.3575C166.234 57.4123 165.952 57.451 165.618 57.451C164.569 57.451 163.969 56.7649 163.969 55.5698V49.2693H166.347V49.0825H163.969V47.0307H163.642V49.0825H162.304V49.2693Z" fill="black"/>
<path d="M168.862 44.4768H169.782V50.5518C170.196 49.5694 171.379 48.6546 172.992 48.6546C174.92 48.6546 176.219 49.6886 176.219 52.259V57.8154H175.299V52.2075C175.299 50.2909 174.395 49.447 172.782 49.447C171.272 49.447 169.779 50.4488 169.779 52.346V57.8154H168.858V44.4768H168.862Z" fill="black"/>
<path d="M176.517 58.1083H175.004V52.2072C175.004 50.5258 174.298 49.7399 172.785 49.7399C171.483 49.7399 170.08 50.5548 170.08 52.3425V58.1083H168.567V44.1802H170.08V49.5659C170.708 48.8863 171.709 48.3548 172.992 48.3548C175.267 48.3548 176.517 49.7399 176.517 52.2556V58.1083ZM175.597 57.5188H175.925V52.2588C175.925 50.062 174.94 48.9475 172.992 48.9475C171.888 48.9475 171.032 49.3984 170.507 49.9718C171.13 49.4274 171.959 49.1504 172.782 49.1504C174.065 49.1504 175.594 49.6819 175.594 52.2072V57.5188H175.597ZM169.16 57.5188H169.487V52.3425C169.487 52.2137 169.493 52.0881 169.506 51.9657L169.487 52.0107V44.7697H169.16V57.5188Z" fill="black"/>
<path d="M178.302 53.3967V53.2582C178.302 50.5332 180.039 48.652 182.469 48.652C184.656 48.652 186.444 50.0661 186.444 53.0521V53.3806H179.258C179.294 55.7965 180.457 57.1751 182.608 57.1751C184.118 57.1751 185.142 56.5534 185.456 55.294H186.376C185.994 57.0205 184.555 57.9514 182.611 57.9514C179.984 57.9514 178.302 56.1057 178.302 53.3967ZM185.488 52.6365C185.401 50.4462 184.238 49.4283 182.469 49.4283C180.716 49.4283 179.465 50.6717 179.294 52.6365H185.488Z" fill="black"/>
<path d="M182.605 58.2471C179.854 58.2471 178.004 56.2983 178.004 53.3961V53.2576C178.004 50.3715 179.838 48.3551 182.466 48.3551C185.061 48.3551 186.736 50.1976 186.736 53.0482V53.6699H179.563C179.65 55.1967 180.275 56.8749 182.605 56.8749C183.583 56.8749 184.824 56.5882 185.164 55.2193L185.219 54.9938H186.739L186.661 55.3513C186.26 57.168 184.746 58.2471 182.605 58.2471ZM182.466 48.9478C180.188 48.9478 178.597 50.7194 178.597 53.2608V53.3993C178.597 55.9859 180.172 57.6609 182.605 57.6609C184.325 57.6609 185.534 56.9136 185.981 55.5929H185.673C185.271 56.8073 184.192 57.474 182.602 57.474C180.321 57.474 178.992 55.9859 178.957 53.3865L178.954 53.0869H186.143V53.0547C186.146 50.5197 184.734 48.9478 182.466 48.9478ZM185.796 52.9323H178.97L178.999 52.6134C179.187 50.5003 180.548 49.1346 182.469 49.1346C184.516 49.1346 185.696 50.3747 185.786 52.6263L185.796 52.9323ZM179.624 52.3428H185.168C185.006 50.626 184.076 49.7241 182.462 49.7241C180.946 49.7241 179.88 50.7162 179.624 52.3428Z" fill="black"/>
<path d="M192.878 48.7905H193.799V50.5493C194.217 49.5668 195.396 48.652 197.009 48.652C198.937 48.652 200.236 49.686 200.236 52.2565V57.8129H199.316V52.2049C199.316 50.2884 198.412 49.4444 196.799 49.4444C195.289 49.4444 193.795 50.4462 193.795 52.3434V57.8129H192.875V48.7905H192.878Z" fill="black"/>
<path d="M200.534 58.1086H199.021V52.2075C199.021 50.5261 198.315 49.7402 196.802 49.7402C195.5 49.7402 194.097 50.5551 194.097 52.3428V58.1086H192.584V48.4936H194.097V49.5662C194.725 48.8866 195.73 48.3551 197.013 48.3551C199.287 48.3551 200.538 49.7402 200.538 52.2558V58.1086H200.534ZM199.614 57.5191H199.942V52.2591C199.942 50.0623 198.957 48.9478 197.009 48.9478C195.905 48.9478 195.053 49.3987 194.528 49.9721C195.15 49.4309 195.979 49.1539 196.802 49.1539C198.085 49.1539 199.614 49.6854 199.614 52.2107V57.5191ZM193.173 57.5191H193.501V52.3428C193.501 52.2108 193.507 52.0851 193.52 51.9627L193.501 52.0078V49.0831H193.173V57.5191Z" fill="black"/>
<path d="M202.32 53.3967V53.2582C202.32 50.5332 204.056 48.652 206.486 48.652C208.673 48.652 210.461 50.0661 210.461 53.0521V53.3806H203.272C203.308 55.7965 204.471 57.1751 206.622 57.1751C208.132 57.1751 209.156 56.5534 209.467 55.294H210.387C210.005 57.0205 208.566 57.9514 206.622 57.9514C204.001 57.9514 202.32 56.1057 202.32 53.3967ZM209.502 52.6365C209.415 50.4462 208.252 49.4283 206.483 49.4283C204.73 49.4283 203.479 50.6717 203.308 52.6365H209.502Z" fill="black"/>
<path d="M206.622 58.2471C203.872 58.2471 202.022 56.2983 202.022 53.3961V53.2576C202.022 50.3715 203.856 48.3551 206.483 48.3551C209.078 48.3551 210.753 50.1976 210.753 53.0482V53.6699H203.577C203.664 55.1967 204.29 56.8749 206.619 56.8749C208.045 56.8749 208.903 56.3177 209.179 55.2193L209.234 54.9938H210.756L210.675 55.3513C210.277 57.168 208.761 58.2471 206.622 58.2471ZM206.483 48.9478C204.205 48.9478 202.615 50.7194 202.615 53.2608V53.3993C202.615 55.9859 204.189 57.6609 206.622 57.6609C208.34 57.6609 209.551 56.9136 209.998 55.5929H209.691C209.289 56.8073 208.21 57.474 206.622 57.474C204.341 57.474 203.013 55.9859 202.977 53.3865L202.974 53.0869H210.164V53.0547C210.16 50.5197 208.751 48.9478 206.483 48.9478ZM209.81 52.9323H202.984L203.013 52.6134C203.201 50.5003 204.562 49.1346 206.483 49.1346C208.534 49.1346 209.71 50.3747 209.797 52.6263L209.81 52.9323ZM203.642 52.3428H209.185C209.023 50.626 208.093 49.7241 206.483 49.7241C204.964 49.7241 203.898 50.7162 203.642 52.3428Z" fill="black"/>
<path d="M211.602 48.7904H212.59L215.02 56.6918L217.502 48.7904H218.282L220.677 56.6918L223.123 48.7904H224.059L221.195 57.8159H220.136L217.884 50.256L215.47 57.8127H214.43L211.602 48.7904Z" fill="black"/>
<path d="M221.416 58.1085H219.919L217.874 51.2604L215.687 58.1085H214.21L211.197 48.4935H212.807L215.02 55.6926L217.282 48.4935H218.5L220.677 55.6798L222.903 48.4935H224.464L221.416 58.1085ZM220.732 57.519H220.981L223.658 49.0829H223.343L220.732 57.519ZM220.363 57.519H220.622L218.066 49.0829H217.722L215.072 57.519H215.253L217.894 49.2537L220.363 57.519ZM214.648 57.519H214.965L212.373 49.0829H212.007L214.648 57.519Z" fill="black"/>
</svg>
