<svg width="97" height="61" viewBox="0 0 97 61" fill="none" xmlns="http://www.w3.org/2000/svg">
<path d="M2.66642 22.4515H4.00776C4.45976 22.4515 4.82509 22.0849 4.82509 21.6329V18.1462H1.67176C1.03442 18.1462 0.51709 18.6622 0.51709 19.2995V22.4515H2.66642Z" fill="white"/>
<path d="M0.51709 23.9672V35.2659H4.80509C4.81576 35.2659 4.82509 35.2565 4.82509 35.2445V23.9672H0.51709Z" fill="white"/>
<path d="M14.2861 34.4672V17.9543H7.77397V14.1168H25.508V17.9543H18.9958V34.4672H14.2861ZM36.5211 34.4672V31.4147L36.2303 30.746V25.2804C36.2303 24.3114 35.9299 23.5555 35.3291 23.0128C34.7477 22.4701 33.8464 22.1988 32.6254 22.1988C31.792 22.1988 30.9683 22.3345 30.1543 22.6058C29.3596 22.8578 28.6813 23.2066 28.1192 23.6524L26.4912 20.4835C27.344 19.8827 28.3712 19.4176 29.5728 19.0881C30.7745 18.7586 31.9955 18.5939 33.2359 18.5939C35.6198 18.5939 37.4707 19.1559 38.7887 20.28C40.1066 21.4042 40.7656 23.1582 40.7656 25.5421V34.4672H36.5211ZM31.7532 34.6998C30.5322 34.6998 29.4856 34.4963 28.6134 34.0893C27.7413 33.6629 27.0726 33.0911 26.6075 32.374C26.1423 31.6569 25.9097 30.8526 25.9097 29.961C25.9097 29.0307 26.1326 28.2167 26.5784 27.519C27.0435 26.8213 27.7704 26.2786 28.7588 25.891C29.7473 25.4839 31.0361 25.2804 32.6254 25.2804H36.7827V27.926H33.1196C32.0536 27.926 31.3171 28.1004 30.9101 28.4493C30.5225 28.7982 30.3287 29.2342 30.3287 29.7575C30.3287 30.339 30.5516 30.8041 30.9974 31.153C31.4625 31.4825 32.0924 31.6472 32.887 31.6472C33.6429 31.6472 34.3213 31.4728 34.9221 31.1239C35.5229 30.7557 35.959 30.2227 36.2303 29.525L36.9281 31.6182C36.5986 32.626 35.9978 33.3916 35.1256 33.9149C34.2534 34.4382 33.1293 34.6998 31.7532 34.6998ZM44.8702 34.4672V12.8957H49.4054V34.4672H44.8702ZM57.3648 31.2693L57.4811 25.7456L64.7782 18.8264H70.1856L63.1793 25.9491L60.8244 27.8679L57.3648 31.2693ZM53.6145 34.4672V12.8957H58.1498V34.4672H53.6145ZM65.2724 34.4672L59.9813 27.8969L62.8304 24.3792L70.7671 34.4672H65.2724ZM77.5577 34.6998C76.2204 34.6998 74.9315 34.5447 73.6911 34.2346C72.4701 33.9052 71.501 33.4982 70.7839 33.0136L72.2956 29.7575C73.0127 30.2033 73.8558 30.5716 74.8249 30.8623C75.8134 31.1336 76.7824 31.2693 77.7321 31.2693C78.7787 31.2693 79.5152 31.1433 79.9416 30.8914C80.3874 30.6394 80.6102 30.2905 80.6102 29.8448C80.6102 29.4765 80.4358 29.2052 80.087 29.0307C79.7575 28.8369 79.3117 28.6916 78.7496 28.5947C78.1876 28.4978 77.5674 28.4008 76.889 28.3039C76.2301 28.207 75.5614 28.0811 74.883 27.926C74.2047 27.7516 73.5845 27.4996 73.0224 27.1701C72.4604 26.8406 72.0049 26.3949 71.656 25.8328C71.3266 25.2708 71.1618 24.5439 71.1618 23.6524C71.1618 22.664 71.4428 21.7918 72.0049 21.0359C72.5864 20.28 73.4198 19.6889 74.5051 19.2625C75.5905 18.8167 76.889 18.5939 78.4008 18.5939C79.4667 18.5939 80.5521 18.7101 81.6568 18.9427C82.7616 19.1753 83.6822 19.5145 84.4187 19.9602L82.9069 23.1873C82.1511 22.7415 81.3855 22.4411 80.6102 22.286C79.8544 22.1116 79.1179 22.0244 78.4008 22.0244C77.3929 22.0244 76.6564 22.16 76.1913 22.4314C75.7261 22.7027 75.4936 23.0516 75.4936 23.478C75.4936 23.8656 75.6583 24.1563 75.9878 24.3501C76.3367 24.5439 76.7921 24.699 77.3542 24.8153C77.9162 24.9316 78.5267 25.0382 79.1857 25.1351C79.8641 25.2126 80.5424 25.3386 81.2208 25.513C81.8991 25.6875 82.5096 25.9394 83.0523 26.2689C83.6144 26.579 84.0698 27.0151 84.4187 27.5771C84.7676 28.1198 84.942 28.8369 84.942 29.7285C84.942 30.6975 84.6513 31.56 84.0698 32.3159C83.4884 33.0524 82.6453 33.6338 81.5406 34.0602C80.4552 34.4866 79.1276 34.6998 77.5577 34.6998Z" fill="white"/>
<mask id="mask0_1_224" style="mask-type:luminance" maskUnits="userSpaceOnUse" x="47" y="0" width="50" height="61">
<path d="M55.5896 0.0919276C50.9269 0.0919276 47.1216 3.89728 47.1216 8.55994V9.74923H52.8882V8.55994C52.8882 7.07861 54.1096 5.85723 55.5896 5.85723H88.1962C89.6775 5.85723 90.8975 7.07861 90.8975 8.55994V41.1666C90.8975 42.6466 89.6775 43.868 88.1962 43.868H78.0189C76.8669 43.868 75.8736 44.544 75.4109 45.5213L71.8922 51.5226L68.2455 45.2986C67.7109 44.388 66.7522 43.8799 65.7682 43.8799L55.5896 43.868C54.1096 43.868 52.8882 42.6466 52.8882 41.1666V39.9773H47.1216V41.1666C47.1216 45.8293 50.9269 49.6333 55.5896 49.6333H64.1296L69.3936 58.6146C70.5109 60.556 73.2629 60.5399 74.3709 58.6519L79.6576 49.6333H88.1962C92.8589 49.6333 96.6642 45.8293 96.6642 41.1666V8.55994C96.6642 3.89728 92.8589 0.0919276 88.1962 0.0919276H55.5896Z" fill="white"/>
</mask>
<g mask="url(#mask0_1_224)">
<path d="M47.1229 60.556H96.6642V0.0919429H47.1229V60.556Z" fill="#E12625"/>
</g>
</svg>
