<svg width="24" height="25" viewBox="0 0 24 25" fill="none" xmlns="http://www.w3.org/2000/svg">
<path d="M9.86683 12.3128C8.64771 12.3128 7.60407 11.8787 6.7359 11.0106C5.86774 10.1424 5.43366 9.09875 5.43366 7.87963C5.43366 6.66051 5.86774 5.61686 6.7359 4.7487C7.60407 3.88054 8.64771 3.44646 9.86683 3.44646C11.086 3.44646 12.1296 3.88054 12.9978 4.7487C13.8659 5.61686 14.3 6.66051 14.3 7.87963C14.3 9.09875 13.8659 10.1424 12.9978 11.0106C12.1296 11.8787 11.086 12.3128 9.86683 12.3128ZM1.00049 21.1791V18.0759C1.00049 17.4664 1.1575 16.8937 1.47151 16.3581C1.78553 15.8224 2.21961 15.416 2.77376 15.1389C3.71581 14.6587 4.77792 14.2523 5.9601 13.9198C7.14228 13.5873 8.44452 13.4211 9.86683 13.4211H10.2547C10.3656 13.4211 10.4764 13.4396 10.5872 13.4765C10.4394 13.809 10.3148 14.1553 10.2132 14.5155C10.1116 14.8757 10.0331 15.2498 9.97766 15.6377H9.86683C8.55535 15.6377 7.37779 15.8039 6.33415 16.1364C5.2905 16.4689 4.4362 16.8014 3.77122 17.1339C3.60498 17.2262 3.47106 17.3555 3.36946 17.5218C3.26787 17.688 3.21707 17.8727 3.21707 18.0759V18.9626H10.1993C10.3101 19.3505 10.4579 19.7337 10.6426 20.1124C10.8273 20.4911 11.0305 20.8467 11.2522 21.1791H1.00049ZM16.5166 22.2874L16.1841 20.625C15.9624 20.5326 15.7546 20.4357 15.5607 20.3341C15.3667 20.2325 15.1682 20.1078 14.965 19.96L13.358 20.4587L12.2497 18.5747L13.5242 17.4664C13.4873 17.2078 13.4688 16.9676 13.4688 16.746C13.4688 16.5243 13.4873 16.2842 13.5242 16.0256L12.2497 14.9173L13.358 13.0332L14.965 13.5319C15.1682 13.3841 15.3667 13.2595 15.5607 13.1579C15.7546 13.0563 15.9624 12.9593 16.1841 12.8669L16.5166 11.2045H18.7332L19.0657 12.8669C19.2873 12.9593 19.4951 13.0609 19.6891 13.1717C19.883 13.2826 20.0816 13.4211 20.2848 13.5873L21.8918 13.0332L23.0001 14.9727L21.7256 16.081C21.7625 16.3027 21.781 16.5335 21.781 16.7737C21.781 17.0138 21.7625 17.2447 21.7256 17.4664L23.0001 18.5747L21.8918 20.4587L20.2848 19.96C20.0816 20.1078 19.883 20.2325 19.6891 20.3341C19.4951 20.4357 19.2873 20.5326 19.0657 20.625L18.7332 22.2874H16.5166ZM17.6249 18.9626C18.2344 18.9626 18.7563 18.7455 19.1903 18.3114C19.6244 17.8774 19.8415 17.3555 19.8415 16.746C19.8415 16.1364 19.6244 15.6146 19.1903 15.1805C18.7563 14.7464 18.2344 14.5294 17.6249 14.5294C17.0153 14.5294 16.4935 14.7464 16.0594 15.1805C15.6253 15.6146 15.4083 16.1364 15.4083 16.746C15.4083 17.3555 15.6253 17.8774 16.0594 18.3114C16.4935 18.7455 17.0153 18.9626 17.6249 18.9626ZM9.86683 10.0962C10.4764 10.0962 10.9982 9.87917 11.4323 9.44509C11.8664 9.01101 12.0834 8.48919 12.0834 7.87963C12.0834 7.27007 11.8664 6.74825 11.4323 6.31416C10.9982 5.88008 10.4764 5.66304 9.86683 5.66304C9.25727 5.66304 8.73545 5.88008 8.30137 6.31416C7.86728 6.74825 7.65024 7.27007 7.65024 7.87963C7.65024 8.48919 7.86728 9.01101 8.30137 9.44509C8.73545 9.87917 9.25727 10.0962 9.86683 10.0962Z" fill="#7A8189"/>
</svg>
