<?xml version="1.0" encoding="utf-8"?>
<!-- Generator: Adobe Illustrator 28.1.0, SVG Export Plug-In . SVG Version: 6.00 Build 0)  -->
<svg version="1.1" id="Layer_1" xmlns="http://www.w3.org/2000/svg" xmlns:xlink="http://www.w3.org/1999/xlink" x="0px" y="0px"
	 viewBox="0 0 841.89 320.41" style="enable-background:new 0 0 841.89 320.41;" xml:space="preserve">
<style type="text/css">
	.st0{fill:#E12625;}
</style>
<g>
	<g>
		<path d="M271.79,129.5c4.43,4.71,6.65,11.7,6.65,20.96v36.26h-16.87v-33.44c0-5.02-1.01-8.77-3.03-11.24
			c-2.02-2.47-4.94-3.71-8.76-3.71c-4.25,0-7.64,1.43-10.16,4.3c-2.52,2.87-3.79,7.12-3.79,12.77v31.32h-16.87v-63.34h16.11v7.42
			c2.23-2.67,5.01-4.73,8.33-6.18c3.32-1.45,6.96-2.18,10.92-2.18C261.53,122.43,267.35,124.79,271.79,129.5z"/>
		<path d="M328.13,183.66c-1.66,1.34-3.7,2.34-6.11,3c-2.42,0.67-4.96,1-7.62,1c-6.92,0-12.27-1.92-16.06-5.77
			c-3.79-3.85-5.68-9.5-5.68-16.95v-26.02h-8.98v-14.13h8.98v-15.42h16.87v15.42h14.49v14.13h-14.49v25.79
			c0,2.67,0.63,4.73,1.89,6.18c1.26,1.45,3.04,2.18,5.35,2.18c2.67,0,4.94-0.78,6.81-2.35L328.13,183.66z"/>
		<path d="M400.38,99.36h16.87v87.36h-16.84c-0.02,0-0.03-0.01-0.03-0.03V99.36z"/>
		<path d="M496.13,185.72c-4.61-1.3-8.29-2.92-11.03-4.89l5.62-13.19c2.59,1.81,5.73,3.28,9.41,4.42c3.68,1.14,7.28,1.71,10.81,1.71
			c7.14,0,10.71-1.92,10.71-5.77c0-1.8-0.97-3.1-2.92-3.89c-1.95-0.78-4.94-1.45-8.98-2c-4.76-0.78-8.69-1.69-11.79-2.71
			c-3.1-1.02-5.79-2.83-8.06-5.42c-2.27-2.59-3.41-6.28-3.41-11.07c0-4,1.06-7.55,3.19-10.65c2.13-3.1,5.23-5.51,9.3-7.24
			c4.07-1.72,8.88-2.59,14.44-2.59c4.11,0,8.2,0.49,12.27,1.47c4.07,0.98,7.44,2.34,10.11,4.06l-5.62,13.07
			c-5.12-3.14-10.71-4.71-16.76-4.71c-3.61,0-6.31,0.55-8.11,1.65c-1.8,1.1-2.7,2.51-2.7,4.24c0,1.96,0.97,3.34,2.92,4.12
			c1.95,0.79,5.05,1.53,9.3,2.24c4.76,0.86,8.65,1.79,11.68,2.77c3.03,0.98,5.66,2.77,7.89,5.36c2.23,2.59,3.35,6.2,3.35,10.83
			c0,3.93-1.08,7.42-3.24,10.48c-2.16,3.06-5.32,5.44-9.46,7.12c-4.15,1.69-9.07,2.53-14.76,2.53
			C505.46,187.66,500.74,187.01,496.13,185.72z"/>
		<path d="M640.63,123.37l-21.09,63.34h-16.22l-13.08-39.32l-13.52,39.32H560.5l-20.98-63.34h15.9l13.73,42.86l14.27-42.86h14.27
			l13.84,42.86l14.17-42.86H640.63z"/>
		<path d="M699.67,124.79h14.92v14.13h-14.49v47.8h-16.87v-47.8h-8.98v-14.13h8.98v-2.83c0-7.22,1.96-12.95,5.89-17.19
			c3.93-4.24,9.46-6.36,16.6-6.36c2.52,0,4.92,0.29,7.19,0.88c2.27,0.59,4.16,1.43,5.68,2.53l-4.43,13.3
			c-1.95-1.49-4.22-2.24-6.81-2.24c-5.12,0-7.68,3.06-7.68,9.18V124.79z"/>
		<g>
			<path d="M656.84,136.23h5.25c1.77,0,3.2-1.43,3.2-3.2v-13.66h-12.35c-2.5,0-4.52,2.02-4.52,4.52v12.34
				C650.47,136.23,653.19,136.23,656.84,136.23z"/>
			<path d="M648.42,142.49v44.24h16.79c0.04,0,0.08-0.04,0.08-0.08v-44.16H648.42z"/>
		</g>
		<path d="M430.44,99.36h16.87v87.36h-16.84c-0.02,0-0.03-0.01-0.03-0.03V99.36z"/>
		<g>
			<path d="M468.3,136.23h5.25c1.77,0,3.2-1.43,3.2-3.2v-13.66H464.4c-2.5,0-4.52,2.02-4.52,4.52v12.34
				C461.93,136.23,464.65,136.23,468.3,136.23z"/>
			<path d="M459.88,142.49v44.24h16.79c0.04,0,0.08-0.04,0.08-0.08v-44.16H459.88z"/>
		</g>
		<g>
			<path d="M197.48,136.23h5.25c1.77,0,3.2-1.43,3.2-3.2v-13.66h-12.35c-2.5,0-4.52,2.02-4.52,4.52v12.34
				C191.11,136.23,193.84,136.23,197.48,136.23z"/>
			<path d="M189.07,142.49v44.24h16.79c0.04,0,0.08-0.04,0.08-0.08v-44.16H189.07z"/>
		</g>
		<path d="M391.17,160.23h-44.01c0.79,3.93,2.67,7.03,5.62,9.3c2.96,2.28,6.63,3.41,11.03,3.41c3.03,0,5.71-0.49,8.06-1.47
			c2.34-0.98,4.52-2.53,6.54-4.65l8.98,10.6c-5.48,6.83-13.48,10.24-24.01,10.24c-6.56,0-12.36-1.39-17.41-4.18
			c-5.05-2.79-8.94-6.65-11.68-11.6c-2.74-4.95-4.11-10.56-4.11-16.84c0-6.2,1.35-11.79,4.06-16.78c2.7-4.98,6.42-8.87,11.14-11.66
			c4.72-2.79,10-4.18,15.84-4.18c5.69,0,10.85,1.34,15.46,4c4.61,2.67,8.24,6.5,10.87,11.48c2.63,4.99,3.95,10.77,3.95,17.37
			C391.49,155.52,391.39,157.17,391.17,160.23z M351.7,139.86c-2.59,2.36-4.18,5.57-4.76,9.65h28.66c-0.58-4-2.16-7.2-4.76-9.6
			c-2.6-2.39-5.77-3.59-9.52-3.59C357.5,136.33,354.29,137.5,351.7,139.86z"/>
		<path d="M766.07,183.66c-1.66,1.34-3.7,2.34-6.11,3c-2.42,0.67-4.96,1-7.62,1c-6.92,0-12.27-1.92-16.06-5.77
			c-3.79-3.85-5.68-9.5-5.68-16.95v-26.02h-8.98v-14.13h8.98v-15.42h16.87v15.42h14.49v14.13h-14.49v25.79
			c0,2.67,0.63,4.73,1.89,6.18c1.26,1.45,3.04,2.18,5.35,2.18c2.67,0,4.94-0.78,6.81-2.35L766.07,183.66z"/>
	</g>
	<g>
		<g>
			<g>
				<path class="st0" d="M108.69,177.55v-39.36c0-1.36,0.04-2.67,0.08-3.93c0.13-4.26,0.24-7.95-1.4-9.63
					c-0.87-0.89-2.32-1.33-4.44-1.33c0,0-14.3,0-14.38,0c-2.98,0-6.23-0.69-9.05,0.79c-3.26,1.71-4.24,5.59-4.24,8.98
					c0,0,0,53.94,0,53.94h36.87C109.99,184.45,108.69,181.15,108.69,177.55z"/>
			</g>
		</g>
		<path class="st0" d="M119.38,187.08c-2.34-1.92-3.72-4.81-3.72-7.84v-42.28c0-1.29,0.04-2.55,0.07-3.77
			c0.16-5.38,0.31-10.35-2.83-13.59c-1.87-1.93-4.52-2.86-8.11-2.86H87.22c-3.95,0-7.02-0.87-8.42-2.4
			c-0.15-0.16-0.32-0.29-0.51-0.39c-1.83-2.08-2.84-4.72-2.84-7.5v-24.1c0-6.26,5.09-11.35,11.35-11.35h21.54
			c6.26,0,11.35,5.09,11.35,11.35v24.04c0,7.7,6.26,13.96,13.96,13.96h7.99c6.26,0,11.35,5.09,11.35,11.35v55.38H119.38z"/>
		<g>
			<path class="st0" d="M125.95,82.75v21.06c0,5.68,4.62,10.29,10.29,10.29c8.57,0,19.8,1.97,19.8-9.05c0-0.04,0-21.11,0-21.11
				c0-7.12-5.82-12.97-12.94-12.97c0,0-21.51-0.09-22.94-0.02C123.39,73.64,125.95,78.4,125.95,82.75z"/>
		</g>
	</g>
	<g>
		<g>
			<path d="M465.11,207.49h2.89v41.41h-2.89V207.49z"/>
			<path d="M468.92,249.81h-4.72v-43.24h4.72V249.81z M466.03,247.98h1.06V208.4h-1.06V247.98z"/>
		</g>
		<g>
			<path d="M474.81,235.13v-0.43c0-8.41,6.05-14.25,13.55-14.25c7.55,0,13.5,5.68,13.5,14.19v0.43c0,8.46-6,14.25-13.55,14.25
				C480.7,249.32,474.81,243.38,474.81,235.13z M498.91,235.13v-0.43c0-7.39-4.61-11.84-10.55-11.84c-6,0-10.61,4.55-10.61,11.84
				v0.43c0,7.18,4.5,11.78,10.61,11.78C494.36,246.91,498.91,242.36,498.91,235.13z"/>
			<path d="M488.3,250.24c-8.22,0-14.41-6.5-14.41-15.11v-0.43c0-8.64,6.22-15.16,14.47-15.16c8.35,0,14.41,6.35,14.41,15.11v0.43
				C502.77,243.72,496.55,250.24,488.3,250.24z M488.36,221.37c-7.21,0-12.64,5.73-12.64,13.33v0.43c0,7.57,5.41,13.28,12.58,13.28
				c7.32,0,12.64-5.61,12.64-13.33v-0.43C500.94,226.95,495.65,221.37,488.36,221.37z M488.36,247.83c-6.78,0-11.52-5.22-11.52-12.7
				v-0.43c0-7.51,4.74-12.75,11.52-12.75c6.75,0,11.47,5.24,11.47,12.75v0.43C499.82,242.6,495.11,247.83,488.36,247.83z
				 M488.36,223.78c-5.8,0-9.69,4.39-9.69,10.92v0.43c0,6.5,3.9,10.87,9.69,10.87c5.76,0,9.64-4.37,9.64-10.87v-0.43
				C498,228.17,494.12,223.78,488.36,223.78z"/>
		</g>
		<g>
			<path d="M504.69,220.88h3.11l9.53,25.18l9.48-25.18h2.89l-10.55,28.02h-3.7L504.69,220.88z"/>
			<path d="M519.79,249.81h-4.96l-11.47-29.85h5.07l8.9,23.5l8.85-23.5h4.85L519.79,249.81z M517.59,247.98h0.94l9.86-26.19h-0.94
				L517.59,247.98z M516.09,247.98h1l-9.92-26.19h-1.14L516.09,247.98z"/>
		</g>
		<g>
			<path d="M532.6,235.18v-0.43c0-8.46,5.36-14.3,12.86-14.3c6.75,0,12.27,4.39,12.27,13.66v1.02h-22.18
				c0.11,7.5,3.7,11.78,10.34,11.78c4.66,0,7.82-1.93,8.78-5.84h2.84c-1.18,5.36-5.62,8.25-11.62,8.25
				C537.79,249.32,532.6,243.59,532.6,235.18z M554.77,232.82c-0.27-6.8-3.86-9.96-9.32-9.96c-5.41,0-9.27,3.86-9.8,9.96H554.77z"/>
			<path d="M545.88,250.24c-8.49,0-14.2-6.05-14.2-15.06v-0.43c0-8.96,5.66-15.22,13.77-15.22c8.01,0,13.18,5.72,13.18,14.57v1.93
				h-22.15c0.27,4.74,2.2,9.95,9.39,9.95c4.4,0,7.05-1.73,7.9-5.14l0.17-0.7h4.7l-0.25,1.11
				C557.16,246.89,552.48,250.24,545.88,250.24z M545.45,221.37c-7.03,0-11.94,5.5-11.94,13.39v0.43c0,8.03,4.86,13.23,12.37,13.23
				c5.3,0,9.04-2.32,10.42-6.42h-0.95c-1.24,3.77-4.57,5.84-9.47,5.84c-7.04,0-11.14-4.62-11.25-12.69l-0.01-0.93h22.19v-0.1
				C556.8,226.25,552.45,221.37,545.45,221.37z M555.72,233.74h-21.07l0.09-0.99c0.58-6.56,4.78-10.8,10.71-10.8
				c6.33,0,9.96,3.85,10.23,10.84L555.72,233.74z M536.68,231.91h17.11c-0.5-5.33-3.37-8.13-8.34-8.13
				C540.76,223.78,537.47,226.86,536.68,231.91z"/>
		</g>
		<g>
			<path d="M578.66,242.14v-18.86h-4.13v-2.41h4.13v-6.37h2.84v6.37h7.34v2.41h-7.34v18.64c0,3.37,1.61,4.93,4.18,4.93
				c1.45,0,2.57-0.27,3.54-0.59v2.41c-0.91,0.32-1.98,0.59-3.7,0.59C581.07,249.27,578.66,246.64,578.66,242.14z"/>
			<path d="M585.52,250.18c-4.87,0-7.77-3.01-7.77-8.04V224.2h-4.13v-4.24h4.13v-6.37h4.67v6.37h7.34v4.24h-7.34v17.73
				c0,2.7,1.07,4.01,3.26,4.01c1.43,0,2.49-0.29,3.25-0.54l1.2-0.4v4.32l-0.61,0.22C588.62,249.86,587.44,250.18,585.52,250.18z
				 M575.45,222.37h4.13v19.77c0,4.06,2.05,6.21,5.94,6.21c1.25,0,2.1-0.15,2.78-0.34v-0.53c-0.72,0.17-1.59,0.29-2.62,0.29
				c-3.24,0-5.09-2.13-5.09-5.84v-19.56h7.34v-0.58h-7.34v-6.37h-1.01v6.37h-4.13V222.37z"/>
		</g>
		<g>
			<path d="M595.69,207.49h2.84v18.86c1.28-3.05,4.93-5.89,9.91-5.89c5.95,0,9.96,3.21,9.96,11.19v17.25h-2.84v-17.41
				c0-5.95-2.79-8.57-7.77-8.57c-4.66,0-9.27,3.11-9.27,9v16.98h-2.84V207.49z"/>
			<path d="M619.32,249.81h-4.67v-18.32c0-5.22-2.18-7.66-6.85-7.66c-4.02,0-8.35,2.53-8.35,8.08v17.9h-4.67v-43.24h4.67v16.72
				c1.94-2.11,5.03-3.76,8.99-3.76c7.02,0,10.88,4.3,10.88,12.11V249.81z M616.48,247.98h1.01v-16.33c0-6.82-3.04-10.28-9.05-10.28
				c-3.41,0-6.05,1.4-7.67,3.18c1.92-1.69,4.48-2.55,7.02-2.55c3.96,0,8.68,1.65,8.68,9.49V247.98z M596.61,247.98h1.01v-16.07
				c0-0.4,0.02-0.79,0.06-1.17l-0.06,0.14V208.4h-1.01V247.98z"/>
		</g>
		<g>
			<path d="M624.83,235.18v-0.43c0-8.46,5.36-14.3,12.86-14.3c6.75,0,12.27,4.39,12.27,13.66v1.02h-22.18
				c0.11,7.5,3.7,11.78,10.34,11.78c4.66,0,7.82-1.93,8.79-5.84h2.84c-1.18,5.36-5.62,8.25-11.62,8.25
				C630.02,249.32,624.83,243.59,624.83,235.18z M647.01,232.82c-0.27-6.8-3.86-9.96-9.32-9.96c-5.41,0-9.27,3.86-9.8,9.96H647.01z"
				/>
			<path d="M638.11,250.24c-8.49,0-14.2-6.05-14.2-15.06v-0.43c0-8.96,5.66-15.22,13.77-15.22c8.01,0,13.18,5.72,13.18,14.57v1.93
				h-22.14c0.27,4.74,2.2,9.95,9.39,9.95c3.02,0,6.85-0.89,7.9-5.14l0.17-0.7h4.69l-0.24,1.11
				C649.39,246.89,644.72,250.24,638.11,250.24z M637.68,221.37c-7.03,0-11.94,5.5-11.94,13.39v0.43c0,8.03,4.86,13.23,12.37,13.23
				c5.31,0,9.04-2.32,10.42-6.42h-0.95c-1.24,3.77-4.57,5.84-9.48,5.84c-7.04,0-11.14-4.62-11.25-12.69l-0.01-0.93h22.19v-0.1
				C649.04,226.25,644.68,221.37,637.68,221.37z M647.96,233.74h-21.07l0.09-0.99c0.58-6.56,4.78-10.8,10.71-10.8
				c6.32,0,9.96,3.85,10.24,10.84L647.96,233.74z M628.91,231.91h17.11c-0.5-5.33-3.37-8.13-8.35-8.13
				C632.99,223.78,629.7,226.86,628.91,231.91z"/>
		</g>
		<g>
			<path d="M669.82,220.88h2.84v5.46c1.29-3.05,4.93-5.89,9.91-5.89c5.95,0,9.96,3.21,9.96,11.19v17.25h-2.84v-17.41
				c0-5.95-2.79-8.57-7.77-8.57c-4.66,0-9.27,3.11-9.27,9v16.98h-2.84V220.88z"/>
			<path d="M693.45,249.81h-4.67v-18.32c0-5.22-2.18-7.66-6.85-7.66c-4.02,0-8.35,2.53-8.35,8.08v17.9h-4.67v-29.85h4.67v3.33
				c1.94-2.11,5.04-3.76,9-3.76c7.02,0,10.88,4.3,10.88,12.11V249.81z M690.61,247.98h1.01v-16.33c0-6.82-3.04-10.28-9.05-10.28
				c-3.41,0-6.04,1.4-7.66,3.18c1.92-1.68,4.48-2.54,7.02-2.54c3.96,0,8.68,1.65,8.68,9.49V247.98z M670.73,247.98h1.01v-16.07
				c0-0.41,0.02-0.8,0.06-1.18l-0.06,0.14v-9.08h-1.01V247.98z"/>
		</g>
		<g>
			<path d="M698.96,235.18v-0.43c0-8.46,5.36-14.3,12.86-14.3c6.75,0,12.27,4.39,12.27,13.66v1.02H701.9
				c0.11,7.5,3.7,11.78,10.34,11.78c4.66,0,7.82-1.93,8.78-5.84h2.84c-1.18,5.36-5.62,8.25-11.62,8.25
				C704.15,249.32,698.96,243.59,698.96,235.18z M721.13,232.82c-0.27-6.8-3.86-9.96-9.32-9.96c-5.41,0-9.27,3.86-9.8,9.96H721.13z"
				/>
			<path d="M712.24,250.24c-8.49,0-14.2-6.05-14.2-15.06v-0.43c0-8.96,5.66-15.22,13.77-15.22c8.01,0,13.18,5.72,13.18,14.57v1.93
				h-22.15c0.27,4.74,2.2,9.95,9.39,9.95c4.4,0,7.05-1.73,7.9-5.14l0.17-0.7h4.7l-0.25,1.11
				C723.52,246.89,718.84,250.24,712.24,250.24z M711.81,221.37c-7.03,0-11.94,5.5-11.94,13.39v0.43c0,8.03,4.86,13.23,12.37,13.23
				c5.3,0,9.04-2.32,10.42-6.42h-0.95c-1.24,3.77-4.57,5.84-9.47,5.84c-7.04,0-11.14-4.62-11.25-12.69l-0.01-0.93h22.19v-0.1
				C723.16,226.25,718.81,221.37,711.81,221.37z M722.08,233.74h-21.07l0.09-0.99c0.58-6.56,4.78-10.8,10.71-10.8
				c6.33,0,9.96,3.85,10.23,10.84L722.08,233.74z M703.04,231.91h17.11c-0.5-5.33-3.37-8.13-8.34-8.13
				C707.12,223.78,703.83,226.86,703.04,231.91z"/>
		</g>
		<g>
			<path d="M727.61,220.88h3.05l7.5,24.53l7.66-24.53h2.41l7.39,24.53l7.55-24.53h2.89l-8.84,28.02h-3.27L747,225.43l-7.45,23.46
				h-3.21L727.61,220.88z"/>
			<path d="M757.9,249.81h-4.62l-6.31-21.26l-6.75,21.26h-4.56l-9.3-29.85h4.97l6.83,22.35l6.98-22.35h3.76l6.72,22.31l6.87-22.31
				h4.82L757.9,249.81z M755.79,247.98h0.77l8.26-26.19h-0.97L755.79,247.98z M754.65,247.98h0.8l-7.89-26.19h-1.06l-8.18,26.19
				h0.56l8.15-25.66L754.65,247.98z M737.01,247.98h0.98l-8-26.19h-1.13L737.01,247.98z"/>
		</g>
	</g>
</g>
</svg>
