<?xml version="1.0" standalone="no"?>
<!DOCTYPE svg PUBLIC "-//W3C//DTD SVG 20010904//EN"
 "http://www.w3.org/TR/2001/REC-SVG-20010904/DTD/svg10.dtd">
<svg version="1.0" xmlns="http://www.w3.org/2000/svg"
 width="1280.000000pt" height="960.000000pt" viewBox="0 0 1280.000000 960.000000"
 preserveAspectRatio="xMidYMid meet">
<metadata>
Created by potrace 1.15, written by Peter Selinger 2001-2017
</metadata>
<g transform="translate(0.000000,960.000000) scale(0.100000,-0.100000)"
fill="#a77e01" stroke="none">
<path d="M2080 9517 c-132 -106 -281 -260 -343 -354 -69 -104 -127 -253 -127
-327 0 -24 -98 -232 -106 -224 -1 2 3 30 8 63 20 119 -8 313 -66 468 -36 93
-127 287 -136 287 -9 0 -37 -176 -51 -325 -26 -268 21 -494 129 -628 l31 -38
-29 -62 c-44 -98 -131 -274 -124 -252 4 11 9 81 11 155 4 120 2 146 -20 230
-31 118 -90 252 -176 395 l-66 110 -7 -40 c-3 -22 -10 -110 -13 -195 -15 -328
49 -578 182 -713 l47 -48 -43 -102 c-23 -56 -61 -148 -84 -204 -22 -56 -42
-101 -44 -99 -2 2 4 34 13 72 32 139 15 339 -42 491 -30 79 -106 230 -162 321
l-39 63 -7 -43 c-14 -93 -19 -414 -7 -499 25 -185 82 -325 171 -418 l51 -54
-54 -146 c-30 -80 -60 -163 -67 -183 -6 -21 -12 -38 -13 -38 -1 0 -2 48 -3
108 -2 231 -87 428 -313 722 -11 14 -22 23 -24 20 -9 -10 12 -359 28 -448 37
-218 110 -372 224 -474 l49 -45 -37 -124 c-21 -69 -44 -149 -51 -179 l-14 -55
-18 95 c-32 158 -112 322 -246 500 l-57 75 -3 -135 c-8 -352 58 -604 199 -754
l60 -65 -20 -123 c-11 -68 -23 -150 -27 -183 l-8 -60 -13 65 c-43 208 -136
367 -337 574 -53 54 -99 97 -101 94 -8 -8 33 -232 62 -342 69 -264 175 -439
322 -533 51 -34 53 -36 48 -72 -3 -20 -9 -103 -13 -184 l-7 -148 -22 63 c-57
164 -151 291 -313 426 -61 50 -205 152 -216 152 -3 0 16 -62 43 -137 138 -390
259 -566 449 -655 l62 -30 0 -101 c0 -56 3 -140 6 -187 l6 -85 -51 100 c-63
123 -151 229 -268 322 -88 70 -251 183 -264 183 -10 0 63 -186 121 -308 55
-116 137 -244 200 -315 55 -63 168 -141 231 -162 27 -9 49 -20 49 -24 0 -13
30 -235 36 -266 5 -27 3 -25 -22 15 -77 128 -195 242 -339 330 -70 43 -283
150 -298 150 -14 0 68 -144 161 -284 97 -148 223 -282 319 -339 63 -38 161
-77 194 -77 11 0 21 -9 24 -22 3 -13 14 -63 25 -113 11 -49 22 -100 25 -113 4
-17 -18 1 -77 61 -94 95 -196 162 -331 218 -93 38 -319 110 -326 104 -6 -7
154 -200 244 -294 149 -155 304 -255 432 -281 126 -25 108 -3 173 -205 33 -98
58 -181 56 -183 -2 -2 -13 12 -25 31 -33 54 -180 188 -251 230 -116 67 -300
127 -492 161 l-77 13 29 -37 c49 -62 239 -239 325 -303 154 -114 316 -177 459
-177 l71 -1 51 -124 c48 -117 50 -123 25 -104 -195 152 -361 206 -666 216
-123 4 -177 2 -170 -5 6 -6 60 -46 120 -89 291 -207 477 -280 695 -271 l108 4
12 -25 c6 -14 37 -73 68 -131 31 -58 58 -108 60 -112 2 -4 -27 13 -65 38 -83
55 -200 101 -316 125 -106 21 -297 42 -351 37 l-39 -3 98 -78 c141 -113 264
-193 379 -248 127 -59 207 -79 327 -80 l94 0 72 -105 c39 -57 70 -104 69 -104
-1 0 -30 11 -65 25 -180 73 -403 78 -686 13 -49 -11 -96 -24 -103 -28 -8 -4
38 -27 119 -60 258 -103 389 -134 564 -133 103 0 131 3 195 26 l75 26 30 -37
c17 -20 59 -70 94 -111 36 -42 56 -71 45 -67 -100 39 -174 51 -314 50 -80 0
-172 -5 -205 -12 -73 -16 -305 -81 -324 -92 -10 -5 29 -22 110 -48 360 -117
620 -133 806 -47 l55 25 91 -83 c51 -45 109 -95 130 -111 21 -16 36 -30 34
-32 -2 -2 -39 5 -83 17 -159 41 -361 24 -552 -48 -124 -46 -298 -131 -281
-137 26 -10 194 -35 304 -47 133 -14 326 -6 415 17 83 21 173 63 232 109 26
19 49 31 52 26 3 -4 64 -48 136 -96 71 -49 129 -90 127 -91 -1 -1 -31 3 -67 8
-197 29 -438 -32 -680 -172 -98 -56 -103 -52 90 -75 178 -21 382 -19 500 5
105 22 216 72 267 120 l33 31 107 -60 c60 -32 130 -70 158 -84 l50 -25 -110 5
c-126 6 -226 -7 -332 -42 -89 -30 -232 -98 -338 -162 l-80 -47 65 -9 c36 -5
166 -10 290 -11 206 -1 233 1 315 22 113 30 217 80 281 136 l49 44 55 -28 c30
-14 87 -40 125 -56 l70 -29 -105 -6 c-124 -7 -204 -28 -319 -80 -123 -57 -256
-145 -401 -267 -12 -11 6 -12 105 -7 393 21 614 88 769 235 40 39 77 70 81 70
12 0 229 -82 238 -91 5 -3 -18 -10 -49 -14 -130 -16 -282 -85 -424 -192 -83
-62 -277 -256 -261 -261 23 -8 286 50 404 89 228 74 393 186 465 316 8 14 23
11 123 -22 63 -20 121 -39 129 -42 8 -3 -20 -14 -63 -24 -158 -38 -298 -121
-427 -251 -62 -64 -220 -258 -220 -271 0 -8 226 61 320 98 248 95 415 217 484
353 14 29 29 52 32 52 3 0 49 -16 102 -36 53 -19 108 -39 122 -44 40 -14 288
-84 500 -140 776 -206 1053 -293 1165 -369 l45 -30 6 25 c4 14 4 57 2 95 -7
86 -48 174 -97 207 -84 55 -332 114 -951 226 -463 84 -554 102 -753 148 -115
26 -137 34 -131 47 49 117 58 157 57 281 0 92 -6 151 -23 225 -22 101 -81 284
-124 390 l-23 58 -16 -49 c-61 -186 -81 -316 -75 -485 6 -148 23 -221 84 -341
18 -38 31 -68 28 -68 -6 0 -247 72 -251 75 -2 0 6 23 16 51 79 208 38 453
-136 829 -26 57 -51 104 -54 105 -3 0 -17 -60 -29 -132 -30 -169 -33 -397 -7
-501 24 -97 71 -206 118 -272 22 -32 39 -59 37 -60 -2 -2 -74 22 -161 53 -122
44 -157 60 -153 72 36 107 46 163 46 255 0 158 -37 318 -126 537 -25 62 -50
124 -56 138 l-10 25 -9 -22 c-4 -12 -20 -82 -36 -155 -23 -113 -27 -158 -27
-293 -1 -179 16 -260 78 -388 18 -37 32 -67 31 -67 -7 0 -148 60 -217 92 l-87
41 20 39 c94 184 76 464 -54 843 -40 116 -36 119 -87 -64 -81 -292 -80 -490 3
-696 l34 -84 -86 46 c-110 59 -195 105 -200 110 -2 1 7 24 21 50 54 101 63
147 63 308 -1 127 -5 168 -28 267 -30 125 -94 338 -106 351 -10 11 -77 -197
-101 -313 -24 -114 -26 -285 -5 -383 8 -37 29 -105 48 -152 19 -46 29 -81 23
-78 -41 24 -206 137 -279 190 l-87 65 34 47 c128 175 168 412 135 783 -7 71
-15 128 -18 128 -11 0 -137 -232 -174 -320 -62 -146 -80 -243 -74 -400 2 -74
8 -144 13 -155 10 -25 -43 16 -150 116 l-76 71 45 51 c85 97 144 236 169 399
19 120 28 341 19 441 l-8 78 -73 -111 c-93 -140 -174 -310 -202 -424 -19 -76
-22 -111 -18 -229 l4 -140 -85 89 c-46 49 -95 104 -109 122 l-25 32 55 58
c139 147 194 336 205 707 7 235 13 232 -101 62 -169 -254 -222 -412 -214 -642
5 -146 18 -150 -112 32 -44 61 -82 118 -85 125 -4 9 11 26 39 46 128 92 227
285 275 537 21 109 45 322 39 349 -2 11 -25 -10 -74 -66 -152 -177 -251 -344
-290 -488 -11 -37 -20 -119 -24 -193 l-5 -128 -48 81 c-58 96 -177 323 -177
336 0 5 23 22 50 38 131 78 243 233 325 452 27 72 105 347 105 371 0 21 -136
-95 -239 -203 -153 -160 -234 -308 -265 -484 -8 -45 -16 -83 -18 -85 -4 -4
-70 145 -109 245 l-17 46 63 32 c178 93 321 303 440 644 25 72 44 135 43 140
-5 12 -208 -142 -293 -223 -90 -86 -155 -170 -200 -259 -38 -75 -75 -182 -75
-217 0 -52 -19 -15 -73 144 l-56 166 68 34 c90 43 205 151 276 258 77 115 182
346 230 505 l8 24 -29 -18 c-163 -104 -328 -245 -406 -347 -62 -81 -130 -215
-148 -294 -7 -27 -14 -57 -17 -65 -5 -15 -93 300 -92 330 0 9 31 30 72 49 91
44 209 161 285 283 73 118 223 470 207 486 -8 9 -224 -150 -303 -224 -135
-125 -227 -268 -269 -418 -16 -58 -17 -59 -25 -30 -9 37 -58 322 -58 341 0 7
7 13 16 13 9 0 50 16 91 36 131 63 263 207 371 404 49 90 155 331 148 337 -6
7 -189 -109 -275 -175 -176 -135 -317 -337 -347 -499 -4 -19 -9 -32 -11 -29
-8 8 -32 303 -33 396 l0 85 66 13 c192 36 388 211 613 545 29 43 51 81 48 83
-7 7 -173 -53 -264 -96 -124 -58 -220 -124 -303 -209 -62 -64 -136 -168 -153
-215 -3 -6 -6 -9 -9 -6 -5 6 10 429 16 445 2 7 24 15 48 19 167 25 364 175
518 394 94 134 174 262 167 268 -9 9 -215 -82 -313 -137 -169 -97 -291 -215
-369 -358 l-36 -66 6 65 c4 36 16 124 28 195 l22 130 65 6 c210 18 400 163
641 487 48 64 83 118 78 120 -5 2 -60 -13 -121 -34 -317 -104 -485 -229 -612
-454 l-37 -65 7 45 c7 48 94 405 117 480 l14 45 64 3 c216 10 419 135 686 425
64 69 90 103 80 105 -23 5 -229 -46 -327 -80 -193 -68 -328 -162 -443 -308
-24 -31 -20 -15 40 163 l66 197 56 0 c180 1 357 86 564 274 81 73 251 256 244
263 -8 7 -202 -39 -303 -72 -206 -68 -358 -166 -460 -298 -26 -34 -51 -66 -55
-71 -10 -12 79 217 120 307 l31 68 48 -7 c62 -8 177 11 262 43 140 52 342 197
505 362 l80 81 -50 -6 c-91 -11 -295 -54 -358 -75 -84 -29 -209 -91 -267 -134
-26 -19 -77 -66 -114 -105 -36 -39 -66 -68 -66 -65 0 10 142 309 230 485 l88
176 66 33 c145 74 270 211 360 394 46 95 150 389 144 408 -2 5 -50 -28 -108
-74z"/>
<path d="M10615 9570 c16 -74 99 -300 142 -388 89 -182 214 -319 359 -393 l66
-33 89 -178 c83 -166 229 -474 229 -484 0 -2 -32 30 -71 71 -104 109 -218 180
-376 234 -63 21 -267 64 -358 75 l-50 6 80 -81 c163 -165 365 -310 505 -362
85 -32 200 -51 261 -43 42 6 49 4 59 -14 19 -36 151 -365 142 -355 -5 6 -30
38 -56 72 -102 132 -254 230 -460 298 -102 33 -295 79 -303 72 -7 -7 171 -199
248 -268 205 -183 382 -268 560 -269 l56 0 66 -197 c60 -178 64 -194 40 -163
-115 146 -250 240 -443 308 -97 34 -304 85 -326 80 -10 -2 18 -39 78 -104 263
-288 471 -416 687 -426 l64 -3 14 -45 c20 -65 111 -438 118 -485 6 -40 6 -39
-29 23 -94 170 -231 295 -422 383 -94 43 -291 111 -310 107 -7 -2 26 -54 79
-125 247 -327 427 -464 637 -482 l65 -6 22 -130 c12 -71 24 -159 28 -195 l6
-65 -36 66 c-78 143 -205 266 -372 359 -99 56 -302 145 -310 136 -7 -6 73
-134 167 -268 154 -219 351 -369 518 -394 24 -4 46 -12 48 -19 6 -16 21 -439
16 -445 -3 -3 -6 0 -9 6 -17 47 -91 151 -153 215 -83 85 -179 151 -303 209
-92 43 -257 103 -264 96 -3 -2 14 -33 38 -68 236 -350 428 -523 623 -560 l66
-13 0 -75 c0 -79 -15 -280 -26 -365 l-7 -50 -12 45 c-63 240 -217 421 -518
610 -54 34 -101 60 -103 57 -6 -6 101 -251 148 -337 108 -197 240 -341 371
-404 41 -20 82 -36 91 -36 20 0 21 15 -14 -200 -11 -69 -24 -138 -28 -155 -8
-29 -8 -28 -22 20 -41 152 -116 274 -249 405 -87 86 -315 259 -326 248 -16
-16 133 -367 207 -486 75 -122 193 -239 285 -283 40 -19 72 -40 72 -48 1 -24
-81 -331 -88 -331 -4 0 -12 26 -19 58 -30 139 -151 329 -283 443 -104 90 -288
223 -296 215 -8 -8 96 -274 149 -381 89 -179 232 -337 358 -398 l68 -33 -56
-167 c-53 -159 -72 -196 -72 -144 0 35 -37 142 -75 217 -45 89 -110 173 -200
259 -76 72 -286 234 -293 226 -8 -7 60 -198 113 -323 98 -226 229 -390 370
-463 73 -38 74 -19 -11 -214 -42 -96 -53 -115 -58 -95 -2 14 -10 54 -16 90
-29 159 -113 310 -261 464 -103 108 -239 224 -239 203 0 -24 78 -299 105 -371
82 -219 194 -374 325 -452 27 -16 50 -32 50 -37 0 -19 -168 -332 -216 -401
-11 -16 -13 -2 -13 92 -1 241 -89 437 -315 700 -49 56 -72 77 -74 66 -5 -23
17 -233 34 -329 47 -258 151 -464 280 -557 28 -20 43 -37 39 -46 -3 -7 -41
-64 -85 -125 -130 -182 -117 -178 -112 -32 6 180 -17 282 -104 456 -44 89
-171 286 -198 309 -14 11 -16 -1 -16 -116 0 -381 64 -622 204 -771 l58 -63
-25 -33 c-13 -17 -62 -72 -108 -121 l-85 -89 4 140 c4 118 1 153 -18 229 -28
114 -109 284 -202 424 l-73 111 -8 -78 c-15 -158 9 -449 49 -583 23 -80 87
-197 139 -257 l45 -51 -76 -71 c-107 -100 -160 -141 -150 -116 5 11 11 81 13
155 6 157 -12 254 -74 400 -37 88 -163 320 -174 320 -9 0 -18 -101 -25 -281
-12 -288 30 -476 142 -630 l34 -47 -87 -65 c-73 -53 -238 -166 -279 -190 -6
-3 4 32 23 78 89 223 85 442 -13 743 -21 62 -41 109 -45 105 -12 -13 -77 -228
-106 -353 -23 -97 -27 -138 -27 -265 -1 -161 8 -207 62 -308 14 -26 23 -49 21
-50 -5 -5 -90 -51 -200 -110 l-86 -46 34 84 c83 206 84 405 4 695 -16 58 -35
119 -41 135 -12 30 -13 28 -47 -70 -130 -379 -148 -659 -54 -843 l20 -39 -87
-41 c-69 -32 -210 -92 -217 -92 -1 0 13 30 31 67 62 128 79 209 78 388 0 135
-4 180 -27 293 -41 196 -36 193 -90 65 -61 -144 -113 -306 -133 -412 -22 -117
-16 -294 14 -376 11 -33 17 -64 13 -68 -9 -9 -305 -117 -309 -112 -2 1 15 28
37 60 47 66 94 175 118 272 26 104 23 332 -7 501 -12 72 -26 132 -29 132 -3 0
-21 -33 -40 -73 -186 -397 -230 -649 -150 -861 10 -28 18 -51 16 -51 -3 -3
-245 -75 -251 -75 -3 0 13 37 34 83 59 123 80 217 80 362 0 153 -12 227 -67
415 l-25 85 -24 -59 c-44 -109 -102 -291 -122 -386 -42 -196 -38 -340 13 -461
15 -34 25 -62 23 -64 -15 -14 -446 -102 -938 -190 -564 -102 -819 -163 -901
-217 -53 -35 -91 -122 -97 -218 -6 -108 -1 -118 40 -86 97 73 368 161 1123
361 263 70 513 140 555 155 14 5 69 25 122 44 53 20 99 36 102 36 3 0 18 -23
32 -52 69 -136 236 -258 484 -353 94 -37 320 -106 320 -98 0 13 -158 207 -220
271 -129 130 -269 213 -427 251 -43 10 -71 21 -63 24 8 3 66 22 129 42 100 33
115 36 123 22 72 -130 237 -242 465 -316 117 -38 381 -97 404 -89 15 5 -156
178 -246 250 -139 110 -309 189 -442 205 -29 3 -51 8 -48 11 3 3 59 26 125 51
l121 46 72 -71 c152 -149 375 -218 772 -239 99 -5 117 -4 105 7 -145 122 -278
210 -401 267 -115 52 -195 73 -319 80 l-105 6 70 29 c39 16 95 42 125 56 l55
28 49 -44 c64 -56 168 -106 281 -136 82 -21 109 -23 315 -22 124 1 254 6 290
11 l65 9 -100 59 c-119 70 -266 137 -373 168 -65 18 -101 22 -229 22 l-152 0
47 24 c26 12 95 50 154 82 l108 60 27 -26 c65 -62 173 -109 298 -131 104 -18
319 -18 475 1 193 23 188 19 90 75 -242 140 -483 201 -680 172 -36 -5 -66 -9
-67 -8 -2 1 56 42 127 91 72 48 133 92 136 96 3 5 26 -7 52 -26 177 -136 441
-167 847 -99 50 8 96 17 104 20 17 6 -157 91 -281 137 -51 20 -129 43 -173 52
-113 23 -280 21 -379 -5 -44 -11 -81 -18 -83 -16 -2 2 13 16 34 32 21 16 79
66 130 111 l91 83 55 -25 c186 -86 446 -70 806 47 81 26 120 43 110 48 -18 10
-247 75 -324 91 -34 8 -123 13 -205 13 -140 1 -214 -11 -314 -50 -11 -4 9 25
45 67 35 41 78 91 94 111 l30 37 75 -26 c64 -23 92 -26 195 -26 175 -1 306 30
564 133 81 33 127 56 119 60 -7 4 -53 17 -103 28 -283 65 -506 60 -686 -13
-35 -14 -64 -25 -65 -25 -1 0 30 47 69 104 l72 105 94 0 c52 1 124 8 160 17
89 22 248 98 357 171 95 64 284 210 284 220 0 9 -205 -6 -310 -22 -169 -28
-302 -76 -408 -148 -30 -20 -52 -33 -50 -29 2 4 34 66 73 138 l69 130 107 -4
c217 -9 403 64 694 271 60 43 115 83 120 89 16 16 -336 2 -424 -17 -156 -34
-285 -95 -412 -194 -25 -19 -23 -13 25 104 l51 124 71 1 c143 0 305 63 459
177 86 64 276 241 325 303 l29 37 -77 -13 c-198 -35 -374 -93 -494 -164 -77
-46 -215 -172 -249 -227 -12 -19 -23 -33 -25 -31 -2 2 23 85 56 183 65 202 47
180 173 205 128 26 283 126 432 281 90 94 250 287 244 294 -7 6 -233 -66 -326
-104 -135 -56 -237 -123 -331 -218 -59 -60 -81 -78 -77 -61 3 13 14 64 25 113
11 50 22 100 25 113 3 13 13 22 24 22 32 0 124 36 191 75 97 57 223 190 322
341 93 140 175 284 161 284 -15 0 -228 -107 -298 -150 -144 -88 -262 -202
-339 -330 -25 -40 -27 -42 -22 -15 6 31 36 253 36 266 0 4 22 15 49 24 63 21
176 99 231 162 63 71 145 199 200 315 58 122 131 308 121 308 -13 0 -176 -113
-264 -183 -117 -93 -205 -199 -268 -322 l-51 -100 6 85 c3 47 6 131 6 187 l0
101 63 30 c189 89 310 265 448 655 27 75 46 137 43 137 -11 0 -155 -102 -216
-152 -162 -135 -256 -262 -313 -426 l-22 -63 -7 148 c-4 81 -10 164 -13 184
-5 33 -2 38 33 60 154 93 267 278 339 549 28 107 68 331 60 338 -2 3 -48 -40
-101 -94 -201 -207 -294 -366 -337 -574 l-13 -65 -8 60 c-4 33 -16 115 -27
183 l-20 123 60 65 c141 150 207 402 199 754 l-3 135 -57 -75 c-134 -178 -214
-342 -246 -500 l-18 -95 -14 55 c-7 30 -30 110 -51 179 l-38 126 54 47 c144
129 227 362 241 678 3 69 6 151 8 183 2 31 0 57 -3 57 -21 0 -205 -276 -253
-381 -59 -127 -96 -304 -84 -410 3 -32 4 -59 2 -59 -3 0 -10 17 -16 38 -7 20
-37 103 -67 183 l-54 146 51 54 c89 93 146 233 171 418 12 85 7 406 -7 499
l-7 43 -39 -63 c-56 -91 -132 -242 -162 -321 -60 -161 -75 -363 -37 -511 12
-44 21 -82 21 -85 0 -3 -25 53 -54 124 -29 72 -70 171 -91 222 l-39 92 48 48
c66 67 131 201 158 328 18 81 22 135 22 290 0 105 -3 221 -8 259 l-8 69 -48
-75 c-57 -88 -132 -234 -165 -321 -44 -120 -58 -209 -53 -346 3 -69 9 -135 12
-146 7 -22 -130 256 -144 292 -7 17 -2 30 22 60 109 135 154 358 129 632 -14
148 -41 321 -51 321 -9 0 -101 -195 -136 -287 -58 -155 -86 -349 -66 -468 5
-33 9 -62 7 -63 -8 -8 -105 203 -105 227 0 71 -59 222 -127 324 -76 115 -252
289 -417 412 l-39 29 8 -34z"/>
<path d="M2195 8950 c-190 -49 -338 -111 -445 -183 -67 -46 -167 -145 -210
-207 -35 -52 -80 -133 -80 -145 0 -11 115 -4 174 11 153 39 303 140 472 317
92 97 213 238 202 237 -2 -1 -52 -14 -113 -30z"/>
<path d="M10538 8917 c77 -100 311 -329 389 -380 126 -83 250 -127 358 -127
66 0 66 -4 8 98 -42 77 -146 189 -228 247 -115 82 -315 164 -512 209 l-63 14
48 -61z"/>
</g>
</svg>
