<svg width="24" height="25" viewBox="0 0 24 25" fill="none" xmlns="http://www.w3.org/2000/svg">
<path d="M15.4681 12.6414L19.6573 10.0541L15.4681 7.46674L11.279 10.0541L15.4681 12.6414ZM15.4681 16.0724L18.3482 14.2725V11.9102L15.4681 13.7101L12.5881 11.9102V14.2725L15.4681 16.0724ZM21.5162 21.8658H15.7561C15.7561 21.5846 15.7474 21.3033 15.7299 21.0221C15.7125 20.7409 15.6863 20.4596 15.6514 20.1784H21.5162V5.55436H3.71229V7.24175C3.45047 7.20425 3.18865 7.17613 2.92682 7.15738C2.665 7.13863 2.40318 7.12926 2.14136 7.12926V5.55436C2.14136 5.09033 2.29518 4.69309 2.60282 4.36264C2.91046 4.0322 3.28029 3.86697 3.71229 3.86697H21.5162C21.9482 3.86697 22.3181 4.0322 22.6257 4.36264C22.9333 4.69309 23.0872 5.09033 23.0872 5.55436V20.1784C23.0872 20.6424 22.9333 21.0397 22.6257 21.3701C22.3181 21.7006 21.9482 21.8658 21.5162 21.8658ZM2.14136 21.8658V18.941C2.86865 18.941 3.48684 19.2253 3.99592 19.794C4.50503 20.3628 4.75958 21.0533 4.75958 21.8658H2.14136ZM7.37781 21.8658C7.37781 20.2785 6.87162 18.9255 5.85924 17.8068C4.84686 16.688 3.60756 16.1287 2.14136 16.1287V14.4413C4.0377 14.4413 5.64635 15.1678 6.9673 16.6208C8.28826 18.0738 8.94874 19.8222 8.94874 21.8658H7.37781ZM11.567 21.8658C11.567 20.4596 11.3226 19.1332 10.8339 17.8864C10.3451 16.6396 9.67312 15.5521 8.81783 14.6241C7.96254 13.696 6.96326 12.9648 5.81996 12.4305C4.67667 11.8961 3.45047 11.629 2.14136 11.629V9.94157C3.65993 9.94157 5.08686 10.2556 6.42216 10.8837C7.75745 11.5118 8.92256 12.3648 9.91749 13.4429C10.9124 14.521 11.6979 15.7865 12.2739 17.2395C12.8499 18.6926 13.1379 20.2346 13.1379 21.8658H11.567Z" fill="#7A8189"/>
</svg>
