<svg width="95" height="25" viewBox="0 0 95 25" fill="none" xmlns="http://www.w3.org/2000/svg">
<path d="M10.09 16.4569L11.5 17.8669L16.5 12.8669L11.5 7.86694L10.09 9.27694L12.67 11.8669H3V13.8669H12.67L10.09 16.4569ZM19 3.86694H5C3.89 3.86694 3 4.76694 3 5.86694V9.86694H5V5.86694H19V19.8669H5V15.8669H3V19.8669C3 20.9669 3.89 21.8669 5 21.8669H19C20.1 21.8669 21 20.9669 21 19.8669V5.86694C21 4.76694 20.1 3.86694 19 3.86694Z" fill="white"/>
<path d="M52.2812 17.3123V18.8669H46.5703V17.3123H52.2812ZM47.1172 7.49194V18.8669H45.1562V7.49194H47.1172ZM53.25 14.7341V14.5544C53.25 13.9451 53.3385 13.38 53.5156 12.8591C53.6927 12.3331 53.9479 11.8774 54.2812 11.4919C54.6198 11.1013 55.0312 10.7992 55.5156 10.5857C56.0052 10.3669 56.5573 10.2576 57.1719 10.2576C57.7917 10.2576 58.3438 10.3669 58.8281 10.5857C59.3177 10.7992 59.7318 11.1013 60.0703 11.4919C60.4089 11.8774 60.6667 12.3331 60.8438 12.8591C61.0208 13.38 61.1094 13.9451 61.1094 14.5544V14.7341C61.1094 15.3435 61.0208 15.9086 60.8438 16.4294C60.6667 16.9503 60.4089 17.406 60.0703 17.7966C59.7318 18.182 59.3203 18.4841 58.8359 18.7029C58.3516 18.9164 57.8021 19.0232 57.1875 19.0232C56.5677 19.0232 56.013 18.9164 55.5234 18.7029C55.0391 18.4841 54.6276 18.182 54.2891 17.7966C53.9505 17.406 53.6927 16.9503 53.5156 16.4294C53.3385 15.9086 53.25 15.3435 53.25 14.7341ZM55.1328 14.5544V14.7341C55.1328 15.1143 55.1719 15.4737 55.25 15.8123C55.3281 16.1508 55.4505 16.4477 55.6172 16.7029C55.7839 16.9581 55.9974 17.1586 56.2578 17.3044C56.5182 17.4503 56.8281 17.5232 57.1875 17.5232C57.5365 17.5232 57.8385 17.4503 58.0938 17.3044C58.3542 17.1586 58.5677 16.9581 58.7344 16.7029C58.901 16.4477 59.0234 16.1508 59.1016 15.8123C59.1849 15.4737 59.2266 15.1143 59.2266 14.7341V14.5544C59.2266 14.1794 59.1849 13.8253 59.1016 13.4919C59.0234 13.1534 58.8984 12.8539 58.7266 12.5935C58.5599 12.3331 58.3464 12.13 58.0859 11.9841C57.8307 11.8331 57.526 11.7576 57.1719 11.7576C56.8177 11.7576 56.5104 11.8331 56.25 11.9841C55.9948 12.13 55.7839 12.3331 55.6172 12.5935C55.4505 12.8539 55.3281 13.1534 55.25 13.4919C55.1719 13.8253 55.1328 14.1794 55.1328 14.5544ZM68.1016 10.4138H69.8125V18.6326C69.8125 19.393 69.651 20.0388 69.3281 20.5701C69.0052 21.1013 68.5547 21.505 67.9766 21.781C67.3984 22.0623 66.7292 22.2029 65.9688 22.2029C65.6458 22.2029 65.2865 22.156 64.8906 22.0623C64.5 21.9685 64.1198 21.8175 63.75 21.6091C63.3854 21.406 63.0807 21.1378 62.8359 20.8044L63.7188 19.6951C64.0208 20.0544 64.3542 20.3175 64.7188 20.4841C65.0833 20.6508 65.4661 20.7341 65.8672 20.7341C66.2995 20.7341 66.6667 20.6534 66.9688 20.4919C67.276 20.3357 67.513 20.1039 67.6797 19.7966C67.8464 19.4893 67.9297 19.1143 67.9297 18.6716V12.3279L68.1016 10.4138ZM62.3594 14.7341V14.5701C62.3594 13.9294 62.4375 13.3461 62.5938 12.8201C62.75 12.2888 62.974 11.8331 63.2656 11.4529C63.5573 11.0675 63.9115 10.7732 64.3281 10.5701C64.7448 10.3617 65.2161 10.2576 65.7422 10.2576C66.2891 10.2576 66.7552 10.3565 67.1406 10.5544C67.5312 10.7524 67.8568 11.0362 68.1172 11.406C68.3776 11.7706 68.5807 12.2081 68.7266 12.7185C68.8776 13.2237 68.9896 13.7862 69.0625 14.406V14.9294C68.9948 15.5336 68.8802 16.0857 68.7188 16.5857C68.5573 17.0857 68.3438 17.518 68.0781 17.8826C67.8125 18.2472 67.4844 18.5284 67.0938 18.7263C66.7083 18.9242 66.2526 19.0232 65.7266 19.0232C65.2109 19.0232 64.7448 18.9164 64.3281 18.7029C63.9167 18.4893 63.5625 18.1899 63.2656 17.8044C62.974 17.419 62.75 16.9659 62.5938 16.4451C62.4375 15.919 62.3594 15.3487 62.3594 14.7341ZM64.2422 14.5701V14.7341C64.2422 15.1195 64.2786 15.4789 64.3516 15.8123C64.4297 16.1456 64.5469 16.4399 64.7031 16.6951C64.8646 16.9451 65.0677 17.143 65.3125 17.2888C65.5625 17.4294 65.8568 17.4998 66.1953 17.4998C66.638 17.4998 67 17.406 67.2812 17.2185C67.5677 17.031 67.7865 16.7784 67.9375 16.4607C68.0938 16.1378 68.2031 15.7784 68.2656 15.3826V13.9685C68.2344 13.6612 68.1693 13.3748 68.0703 13.1091C67.9766 12.8435 67.849 12.6117 67.6875 12.4138C67.526 12.2107 67.3229 12.0544 67.0781 11.9451C66.8333 11.8305 66.5443 11.7732 66.2109 11.7732C65.8724 11.7732 65.5781 11.8461 65.3281 11.9919C65.0781 12.1378 64.8724 12.3383 64.7109 12.5935C64.5547 12.8487 64.4375 13.1456 64.3594 13.4841C64.2812 13.8227 64.2422 14.1847 64.2422 14.5701ZM71.4062 14.7341V14.5544C71.4062 13.9451 71.4948 13.38 71.6719 12.8591C71.849 12.3331 72.1042 11.8774 72.4375 11.4919C72.776 11.1013 73.1875 10.7992 73.6719 10.5857C74.1615 10.3669 74.7135 10.2576 75.3281 10.2576C75.9479 10.2576 76.5 10.3669 76.9844 10.5857C77.474 10.7992 77.888 11.1013 78.2266 11.4919C78.5651 11.8774 78.8229 12.3331 79 12.8591C79.1771 13.38 79.2656 13.9451 79.2656 14.5544V14.7341C79.2656 15.3435 79.1771 15.9086 79 16.4294C78.8229 16.9503 78.5651 17.406 78.2266 17.7966C77.888 18.182 77.4766 18.4841 76.9922 18.7029C76.5078 18.9164 75.9583 19.0232 75.3438 19.0232C74.724 19.0232 74.1693 18.9164 73.6797 18.7029C73.1953 18.4841 72.7839 18.182 72.4453 17.7966C72.1068 17.406 71.849 16.9503 71.6719 16.4294C71.4948 15.9086 71.4062 15.3435 71.4062 14.7341ZM73.2891 14.5544V14.7341C73.2891 15.1143 73.3281 15.4737 73.4062 15.8123C73.4844 16.1508 73.6068 16.4477 73.7734 16.7029C73.9401 16.9581 74.1536 17.1586 74.4141 17.3044C74.6745 17.4503 74.9844 17.5232 75.3438 17.5232C75.6927 17.5232 75.9948 17.4503 76.25 17.3044C76.5104 17.1586 76.724 16.9581 76.8906 16.7029C77.0573 16.4477 77.1797 16.1508 77.2578 15.8123C77.3411 15.4737 77.3828 15.1143 77.3828 14.7341V14.5544C77.3828 14.1794 77.3411 13.8253 77.2578 13.4919C77.1797 13.1534 77.0547 12.8539 76.8828 12.5935C76.7161 12.3331 76.5026 12.13 76.2422 11.9841C75.987 11.8331 75.6823 11.7576 75.3281 11.7576C74.974 11.7576 74.6667 11.8331 74.4062 11.9841C74.151 12.13 73.9401 12.3331 73.7734 12.5935C73.6068 12.8539 73.4844 13.1534 73.4062 13.4919C73.3281 13.8253 73.2891 14.1794 73.2891 14.5544ZM85.9297 16.8748V10.4138H87.8203V18.8669H86.0391L85.9297 16.8748ZM86.1953 15.1169L86.8281 15.1013C86.8281 15.669 86.7656 16.1925 86.6406 16.6716C86.5156 17.1456 86.3229 17.5597 86.0625 17.9138C85.8021 18.2628 85.4688 18.5362 85.0625 18.7341C84.6562 18.9268 84.1693 19.0232 83.6016 19.0232C83.1901 19.0232 82.8125 18.9633 82.4688 18.8435C82.125 18.7237 81.8281 18.5388 81.5781 18.2888C81.3333 18.0388 81.1432 17.7133 81.0078 17.3123C80.8724 16.9112 80.8047 16.432 80.8047 15.8748V10.4138H82.6875V15.8904C82.6875 16.1977 82.724 16.4555 82.7969 16.6638C82.8698 16.8669 82.9688 17.031 83.0938 17.156C83.2188 17.281 83.3646 17.3695 83.5312 17.4216C83.6979 17.4737 83.875 17.4998 84.0625 17.4998C84.599 17.4998 85.0208 17.3956 85.3281 17.1873C85.6406 16.9737 85.862 16.6873 85.9922 16.3279C86.1276 15.9685 86.1953 15.5649 86.1953 15.1169ZM93.625 10.4138V11.7888H88.8594V10.4138H93.625ZM90.2344 8.34351H92.1172V16.531C92.1172 16.7914 92.1536 16.9919 92.2266 17.1326C92.3047 17.268 92.4115 17.3591 92.5469 17.406C92.6823 17.4529 92.8411 17.4763 93.0234 17.4763C93.1536 17.4763 93.2786 17.4685 93.3984 17.4529C93.5182 17.4373 93.6146 17.4216 93.6875 17.406L93.6953 18.8435C93.5391 18.8904 93.3568 18.932 93.1484 18.9685C92.9453 19.005 92.7109 19.0232 92.4453 19.0232C92.013 19.0232 91.6302 18.9477 91.2969 18.7966C90.9635 18.6404 90.7031 18.3878 90.5156 18.0388C90.3281 17.6899 90.2344 17.2263 90.2344 16.6482V8.34351Z" fill="white"/>
</svg>
