<svg width="24" height="25" viewBox="0 0 24 25" fill="none" xmlns="http://www.w3.org/2000/svg">
<path d="M11.875 20.8301C11.9417 20.8301 12.0083 20.8134 12.075 20.7801C12.1417 20.7467 12.1917 20.7134 12.225 20.6801L20.425 12.4801C20.625 12.2801 20.7708 12.0551 20.8625 11.8051C20.9542 11.5551 21 11.3051 21 11.0551C21 10.7884 20.9542 10.5342 20.8625 10.2926C20.7708 10.0509 20.625 9.83841 20.425 9.65508L16.175 5.40508C15.9917 5.20508 15.7792 5.05924 15.5375 4.96758C15.2958 4.87591 15.0417 4.83008 14.775 4.83008C14.525 4.83008 14.275 4.87591 14.025 4.96758C13.775 5.05924 13.55 5.20508 13.35 5.40508L13.075 5.68008L14.925 7.55508C15.175 7.78841 15.3583 8.05508 15.475 8.35508C15.5917 8.65508 15.65 8.97174 15.65 9.30508C15.65 10.0051 15.4125 10.5926 14.9375 11.0676C14.4625 11.5426 13.875 11.7801 13.175 11.7801C12.8417 11.7801 12.5208 11.7217 12.2125 11.6051C11.9042 11.4884 11.6333 11.3134 11.4 11.0801L9.52499 9.23008L5.14999 13.6051C5.09999 13.6551 5.06249 13.7092 5.03749 13.7676C5.01249 13.8259 4.99999 13.8884 4.99999 13.9551C4.99999 14.0884 5.04999 14.2092 5.14999 14.3176C5.24999 14.4259 5.36666 14.4801 5.49999 14.4801C5.56666 14.4801 5.63332 14.4634 5.69999 14.4301C5.76666 14.3967 5.81666 14.3634 5.84999 14.3301L9.24999 10.9301L10.65 12.3301L7.27499 15.7301C7.22499 15.7801 7.18749 15.8342 7.16249 15.8926C7.13749 15.9509 7.12499 16.0134 7.12499 16.0801C7.12499 16.2134 7.17499 16.3301 7.27499 16.4301C7.37499 16.5301 7.49166 16.5801 7.62499 16.5801C7.69166 16.5801 7.75832 16.5634 7.82499 16.5301C7.89166 16.4967 7.94166 16.4634 7.97499 16.4301L11.375 13.0551L12.775 14.4551L9.39999 17.8551C9.34999 17.8884 9.31249 17.9384 9.28749 18.0051C9.26249 18.0717 9.24999 18.1384 9.24999 18.2051C9.24999 18.3384 9.29999 18.4551 9.39999 18.5551C9.49999 18.6551 9.61666 18.7051 9.74999 18.7051C9.81666 18.7051 9.87916 18.6926 9.93749 18.6676C9.99582 18.6426 10.05 18.6051 10.1 18.5551L13.5 15.1801L14.9 16.5801L11.5 19.9801C11.45 20.0301 11.4125 20.0842 11.3875 20.1426C11.3625 20.2009 11.35 20.2634 11.35 20.3301C11.35 20.4634 11.4042 20.5801 11.5125 20.6801C11.6208 20.7801 11.7417 20.8301 11.875 20.8301ZM11.85 22.8301C11.2333 22.8301 10.6875 22.6259 10.2125 22.2176C9.73749 21.8092 9.45832 21.2967 9.37499 20.6801C8.80832 20.5967 8.33332 20.3634 7.94999 19.9801C7.56666 19.5967 7.33332 19.1217 7.24999 18.5551C6.68332 18.4717 6.21249 18.2342 5.83749 17.8426C5.46249 17.4509 5.23332 16.9801 5.14999 16.4301C4.51666 16.3467 3.99999 16.0717 3.59999 15.6051C3.19999 15.1384 2.99999 14.5884 2.99999 13.9551C2.99999 13.6217 3.06249 13.3009 3.18749 12.9926C3.31249 12.6842 3.49166 12.4134 3.72499 12.1801L9.52499 6.40508L12.8 9.68008C12.8333 9.73008 12.8833 9.76758 12.95 9.79258C13.0167 9.81758 13.0833 9.83008 13.15 9.83008C13.3 9.83008 13.425 9.78424 13.525 9.69258C13.625 9.60091 13.675 9.48008 13.675 9.33008C13.675 9.26341 13.6625 9.19674 13.6375 9.13008C13.6125 9.06341 13.575 9.01341 13.525 8.98008L9.94999 5.40508C9.76666 5.20508 9.55416 5.05924 9.31249 4.96758C9.07082 4.87591 8.81666 4.83008 8.54999 4.83008C8.29999 4.83008 8.04999 4.87591 7.79999 4.96758C7.54999 5.05924 7.32499 5.20508 7.12499 5.40508L3.59999 8.95508C3.44999 9.10508 3.32499 9.28008 3.22499 9.48008C3.12499 9.68008 3.05832 9.88008 3.02499 10.0801C2.99166 10.2801 2.99166 10.4842 3.02499 10.6926C3.05832 10.9009 3.12499 11.0967 3.22499 11.2801L1.77499 12.7301C1.49166 12.3467 1.28332 11.9259 1.14999 11.4676C1.01666 11.0092 0.966657 10.5467 0.99999 10.0801C1.03332 9.61341 1.14999 9.15924 1.34999 8.71758C1.54999 8.27591 1.82499 7.88008 2.17499 7.53008L5.69999 4.00508C6.09999 3.62174 6.54582 3.33008 7.03749 3.13008C7.52916 2.93008 8.03332 2.83008 8.54999 2.83008C9.06666 2.83008 9.57082 2.93008 10.0625 3.13008C10.5542 3.33008 10.9917 3.62174 11.375 4.00508L11.65 4.28008L11.925 4.00508C12.325 3.62174 12.7708 3.33008 13.2625 3.13008C13.7542 2.93008 14.2583 2.83008 14.775 2.83008C15.2917 2.83008 15.7958 2.93008 16.2875 3.13008C16.7792 3.33008 17.2167 3.62174 17.6 4.00508L21.825 8.23008C22.2083 8.61341 22.5 9.05508 22.7 9.55508C22.9 10.0551 23 10.5634 23 11.0801C23 11.5967 22.9 12.1009 22.7 12.5926C22.5 13.0842 22.2083 13.5217 21.825 13.9051L13.625 22.0801C13.3917 22.3134 13.1208 22.4967 12.8125 22.6301C12.5042 22.7634 12.1833 22.8301 11.85 22.8301Z" fill="#7A8189"/>
</svg>
