<svg width="25" height="24" viewBox="0 0 25 24" fill="none" xmlns="http://www.w3.org/2000/svg">
<g clip-path="url(#clip0_1720_678)">
<path d="M17.752 8C17.4686 8 17.2311 7.90417 17.0395 7.7125C16.8478 7.52083 16.752 7.28333 16.752 7C16.752 6.71667 16.8478 6.47917 17.0395 6.2875C17.2311 6.09583 17.4686 6 17.752 6C18.0353 6 18.2728 6.09583 18.4645 6.2875C18.6561 6.47917 18.752 6.71667 18.752 7C18.752 7.28333 18.6561 7.52083 18.4645 7.7125C18.2728 7.90417 18.0353 8 17.752 8ZM9.75195 14L12.452 10.5L14.002 12.5L16.302 9.5L19.752 14H9.75195ZM4.75195 22C4.20195 22 3.73112 21.8042 3.33945 21.4125C2.94779 21.0208 2.75195 20.55 2.75195 20V6H4.75195V20H18.752V22H4.75195ZM6.75195 9.375V4C6.75195 3.45 6.94779 2.97917 7.33945 2.5875C7.73112 2.19583 8.20195 2 8.75195 2H13.752V4H8.75195V9.375H6.75195ZM8.75195 18C8.20195 18 7.73112 17.8042 7.33945 17.4125C6.94779 17.0208 6.75195 16.55 6.75195 16V11.375H8.75195V16H13.752V18H8.75195ZM15.752 18V16H20.752V11.375H22.752V16C22.752 16.55 22.5561 17.0208 22.1645 17.4125C21.7728 17.8042 21.302 18 20.752 18H15.752ZM20.752 9.375V4H15.752V2H20.752C21.302 2 21.7728 2.19583 22.1645 2.5875C22.5561 2.97917 22.752 3.45 22.752 4V9.375H20.752Z" fill="#7A8189"/>
</g>
<defs>
<clipPath id="clip0_1720_678">
<rect width="24" height="24" fill="white" transform="translate(0.751953)"/>
</clipPath>
</defs>
</svg>
