<svg width="25" height="24" viewBox="0 0 25 24" fill="none" xmlns="http://www.w3.org/2000/svg">
<path d="M12.7518 11.0444C11.9554 11.0444 11.2785 10.7657 10.721 10.2082C10.1635 9.65075 9.88482 8.97383 9.88482 8.17746C9.88482 7.38109 10.1635 6.70417 10.721 6.14671C11.2785 5.58925 11.9554 5.31052 12.7518 5.31052C13.5481 5.31052 14.225 5.58925 14.7825 6.14671C15.34 6.70417 15.6187 7.38109 15.6187 8.17746C15.6187 8.97383 15.34 9.65075 14.7825 10.2082C14.225 10.7657 13.5481 11.0444 12.7518 11.0444ZM12.7518 9.13311C13.0225 9.13311 13.2495 9.04153 13.4327 8.85836C13.6158 8.67519 13.7074 8.44823 13.7074 8.17746C13.7074 7.90669 13.6158 7.67973 13.4327 7.49656C13.2495 7.3134 13.0225 7.22181 12.7518 7.22181C12.481 7.22181 12.254 7.3134 12.0709 7.49656C11.8877 7.67973 11.7961 7.90669 11.7961 8.17746C11.7961 8.44823 11.8877 8.67519 12.0709 8.85836C12.254 9.04153 12.481 9.13311 12.7518 9.13311ZM7.01788 16.7783V14.9626C7.01788 14.6281 7.1015 14.3135 7.26873 14.0189C7.43597 13.7242 7.66294 13.4893 7.94963 13.3141C8.66637 12.8999 9.42292 12.5774 10.2193 12.3465C11.0157 12.1155 11.8598 12 12.7518 12C13.6437 12 14.4878 12.1155 15.2842 12.3465C16.0806 12.5774 16.8371 12.8999 17.5539 13.3141C17.8406 13.4893 18.0675 13.7242 18.2348 14.0189C18.402 14.3135 18.4856 14.6281 18.4856 14.9626V16.7783H7.01788ZM12.7518 13.9113C12.0987 13.9113 11.4616 13.991 10.8405 14.1503C10.2193 14.3095 9.62998 14.5484 9.07252 14.867H16.431C15.8735 14.5484 15.2842 14.3095 14.6631 14.1503C14.0419 13.991 13.4048 13.9113 12.7518 13.9113ZM21.5676 8.32081C21.0738 7.1581 20.385 6.13477 19.501 5.25079C18.617 4.36682 17.5937 3.67796 16.431 3.18421L17.1716 1.41626C18.5732 1.98965 19.8036 2.80991 20.8628 3.87705C21.922 4.94419 22.7462 6.17857 23.3355 7.58018L21.5676 8.32081ZM3.93592 8.32081L2.16797 7.58018C2.75728 6.17857 3.58153 4.94817 4.6407 3.889C5.69988 2.82982 6.93028 2.00558 8.33189 1.41626L9.07252 3.18421C7.90981 3.67796 6.88648 4.36682 6.0025 5.25079C5.11853 6.13477 4.42967 7.1581 3.93592 8.32081ZM8.33189 22.5838C6.93028 22.0104 5.69988 21.1902 4.6407 20.123C3.58153 19.0559 2.75728 17.8215 2.16797 16.4199L3.93592 15.6793C4.42967 16.842 5.11853 17.8653 6.0025 18.7493C6.88648 19.6333 7.90981 20.3221 9.07252 20.8159L8.33189 22.5838ZM17.1716 22.5838L16.431 20.8159C17.5937 20.3221 18.617 19.6333 19.501 18.7493C20.385 17.8653 21.0738 16.842 21.5676 15.6793L23.3355 16.4199C22.7622 17.8215 21.9419 19.0519 20.8748 20.1111C19.8076 21.1703 18.5732 21.9945 17.1716 22.5838ZM12.7518 14.867H16.431H9.07252H12.7518Z" fill="#7A8189"/>
</svg>
